<svg width="24" height="27" viewBox="0 0 24 27" fill="none" xmlns="http://www.w3.org/2000/svg">
<path d="M9.40754 0.00546689C9.28699 -0.00683361 9.19597 0.00546689 9.13201 0.00546689H9.08772C8.20454 0.0694306 7.33119 0.133394 6.42586 0.411388L6.40864 0.416309L6.39142 0.423689C5.79853 0.645101 5.2819 0.873893 5.06787 0.83453C5.04081 0.82223 5.02113 0.81239 4.94241 0.773028C4.83416 0.718905 4.64227 0.63526 4.40856 0.63526C4.24373 0.63526 4.0789 0.657401 3.90669 0.728746C3.73448 0.797629 3.53029 0.923095 3.40482 1.17157C3.31872 1.34378 3.30888 1.58487 3.3261 1.70296C3.32856 1.67344 3.33594 1.68574 3.15635 1.8112C2.95708 1.95143 2.56592 2.14086 2.41585 2.66733V2.67717L2.41093 2.68701C2.29777 3.14459 2.35681 3.43981 2.35189 3.48901C2.31745 3.59972 2.13048 3.71042 1.75408 3.93676L1.72948 3.95152C1.09968 4.3722 0.558453 4.90851 0.191894 5.64409C0.12793 5.76955 3.25245e-06 5.96636 3.25245e-06 6.3034C3.25245e-06 6.74376 0.233716 6.95287 0.373943 7.10294C0.51417 7.25301 0.637177 7.38586 0.610116 7.3465L0.624877 7.36864L0.642097 7.38832C0.68392 7.43998 0.69868 7.63187 0.600275 7.92955C0.521551 8.1608 0.302599 8.44617 0.12793 8.86686C-0.00245671 9.13747 3.25245e-06 9.39086 3.25245e-06 9.45237V9.71314L0.401005 10.1141L0.432986 10.1387C0.981595 10.5668 1.45148 10.9801 1.85494 11.4402L1.84018 11.4205C2.16246 11.8239 2.48966 11.9715 2.76027 12.1339C3.10715 12.343 3.56965 12.6555 4.21667 12.5251C4.4922 12.4709 4.68163 12.3652 4.82432 12.3037C4.96701 12.2397 5.04819 12.2249 5.03835 12.2249C4.99407 12.2249 5.07033 12.2299 5.17858 12.2618C5.27452 12.2889 5.41967 12.3258 5.59926 12.3356C6.29056 12.434 6.77028 12.0724 6.97447 11.9912C6.95479 11.9961 7.05074 11.9765 7.1516 12.0011C7.25001 12.0257 7.35087 12.0872 7.36317 12.1019L7.40992 12.1462L7.45912 12.1807C7.41976 12.1536 7.4419 12.1634 7.50586 12.2569C7.56736 12.3479 7.67561 12.5201 7.88472 12.6678C8.19716 12.8965 8.52435 12.9113 8.82941 12.8621C8.84171 12.8818 8.84663 12.8793 8.85647 12.899C8.92044 13.0245 8.94258 13.1893 8.94258 13.1057C8.94258 13.1278 8.93274 13.177 8.90567 13.3025C8.87861 13.4083 8.84171 13.5952 8.88599 13.8191C8.95242 14.5153 9.08034 15.1156 9.57975 15.7601C9.96107 16.2472 10.1284 16.6359 10.1357 17.2338C10.1111 17.465 10.0004 17.7381 9.85282 18.0825C9.7003 18.4368 9.50841 18.8673 9.50841 19.4036C9.50841 20.0555 9.85529 20.5303 10.1284 20.9018C10.4014 21.2733 10.6179 21.5833 10.6622 21.7604C10.6942 21.8908 10.6966 22.2032 10.7852 22.5673C10.9353 23.2291 11.2231 23.7998 11.5577 24.3337L11.5626 24.3411L11.5675 24.3509C11.7693 24.6535 11.8283 24.6806 11.8406 24.6953V24.9438C11.8406 25.5957 12.2588 26.0681 12.8025 26.287L12.8197 26.292L12.837 26.2993C13.2945 26.4519 13.6119 26.3141 13.8628 26.2501C14.2417 26.2108 14.7239 26.1394 15.2159 25.9771C15.7375 25.8073 16.2787 25.5687 16.6403 25.0545L16.6772 25.0004L16.7018 24.9413C16.8716 24.5477 17.0979 24.1689 17.3242 23.9425C17.4177 23.8491 17.5457 23.731 17.6662 23.5342C17.7351 23.421 17.7228 23.2266 17.7449 23.0544H17.8852L17.9467 23.0421C18.3255 22.9683 18.5961 22.6879 18.7241 22.4197C18.8495 22.154 18.879 21.8834 18.8126 21.5956C18.7413 21.2758 18.5715 21.0617 18.4608 20.9264C18.3772 20.8231 18.355 20.7837 18.328 20.7419C18.3403 20.7198 18.3403 20.705 18.3624 20.6829C18.4657 20.5672 18.6257 20.4368 18.7093 20.3852C19.0685 20.213 19.6441 20.0039 19.9615 19.3716L19.9738 19.347L19.9836 19.3224C20.1632 18.8722 20.1632 18.358 19.9836 17.9078L20.0156 18.021C19.8729 17.3026 19.6343 16.7565 19.5826 16.2546L19.5802 16.2226L19.5728 16.1931C19.5138 15.8856 19.7524 15.3911 20.0648 14.8253C20.2469 14.5596 20.5495 14.2914 20.8816 14.07L20.8939 14.0602L20.9086 14.0504C21.563 13.5608 22.4413 12.835 23.1055 12.0134C23.4401 11.6025 23.723 11.1695 23.8829 10.6898C24.0429 10.2101 24.0625 9.6418 23.7919 9.14731L23.418 8.46832L22.83 8.97264C22.5545 9.20881 21.8706 9.46221 21.3564 9.51633C21.2752 9.50895 21.1891 9.49419 21.1743 9.50157C21.1596 9.48927 21.1522 9.47451 21.1571 9.48435L21.1227 9.41547L21.071 9.35642C20.8201 9.06367 20.6307 8.38713 19.9959 7.84098L19.9812 7.82868L19.964 7.81638C19.6589 7.58513 19.4867 7.49164 19.3981 7.37356L19.3711 7.33666L19.3391 7.30713C19.2358 7.20381 19.1128 6.92335 18.9873 6.54449L18.9824 6.53465C18.6429 5.56536 18.6404 4.66495 18.1533 3.48163L18.1459 3.45949L18.1361 3.43981C18.082 3.33156 18.0131 3.16673 17.8802 2.9773C17.7449 2.78787 17.4546 2.52464 17.0659 2.52464H16.5813L16.537 2.52956C16.2688 2.56892 15.9589 2.49266 15.5652 2.33767C15.1815 2.19006 14.7386 1.97849 14.2196 1.86041C14.0523 1.80874 13.8825 1.77922 13.6882 1.79398C13.4889 1.80874 13.2429 1.86779 13.0313 2.07936C12.8148 2.29585 12.7779 2.50988 12.7435 2.64765C12.7066 2.62551 12.6426 2.5763 12.4532 2.45084C12.0104 2.14086 11.5036 1.98833 11.0312 1.83088C10.7606 1.74232 10.6081 1.66113 10.4014 1.57257C10.4064 1.56027 10.4187 1.53813 10.4211 1.52583C10.5269 1.21339 10.4654 0.972298 10.3793 0.755806C10.2907 0.539315 10.1628 0.335125 9.92171 0.172756L9.88973 0.153075L9.85282 0.133394C9.67816 0.0472889 9.53055 0.0153074 9.40754 0.00546689ZM9.16891 1.26505C9.13201 1.36592 9.09756 1.4717 9.04836 1.54551L8.70886 2.05722L9.21073 2.41147C9.65355 2.71899 10.1603 2.86906 10.6327 3.02651C11.105 3.18396 11.5429 3.35124 11.7299 3.48163L11.7373 3.48409L11.7422 3.48901C11.8775 3.58004 12.0473 3.76209 12.3966 3.87771C12.5713 3.93676 12.7509 3.96382 12.9501 3.9466C13.1519 3.93183 13.3979 3.87279 13.6094 3.66122C13.8309 3.43981 13.8727 3.21102 13.9047 3.07571H13.912C14.2515 3.14951 14.6501 3.33648 15.1077 3.51361C15.5652 3.69074 16.1016 3.86541 16.7166 3.77931L16.628 3.78423H16.8937C16.9183 3.82851 16.9478 3.88263 16.9921 3.9712C17.3808 4.92081 17.3857 5.77939 17.7917 6.94303C17.7941 6.94303 17.7941 6.94549 17.7941 6.94549C17.9171 7.31451 18.0549 7.7721 18.4313 8.16572C18.6995 8.49784 18.9922 8.66512 19.1816 8.80289C19.4031 8.9997 19.6269 9.52371 20.0304 10.0502C20.1682 10.3257 20.3502 10.5078 20.6257 10.6455C20.9775 10.8202 21.2235 10.7735 21.413 10.7735H21.445L21.4745 10.771C21.8238 10.7366 22.1904 10.6554 22.5422 10.5348C22.4364 10.7489 22.3306 10.9727 22.1289 11.2212C21.5803 11.8953 20.7586 12.5866 20.1534 13.0417C19.7425 13.3172 19.3169 13.6666 18.9996 14.1414L18.9848 14.1635L18.9725 14.1857C18.6675 14.7343 18.1607 15.4846 18.3403 16.4219C18.4215 17.1575 18.6749 17.7356 18.7806 18.267L18.7929 18.3236L18.8126 18.3777C18.879 18.545 18.8717 18.6606 18.8126 18.8205C18.7511 18.9263 18.4977 19.0862 18.1066 19.2806L18.0869 19.2929L18.0672 19.3027C17.8335 19.443 17.6219 19.625 17.4276 19.839C17.2332 20.0531 17.0044 20.2327 17.0044 20.7271C17.0044 20.7763 17.0315 21.015 17.152 21.2192C17.2627 21.4553 17.4005 21.6177 17.4841 21.721C17.5358 21.785 17.526 21.7752 17.5383 21.7948H17.4448C17.2775 21.7948 17.1471 21.8194 16.9749 21.8883C16.8888 21.9228 16.7929 21.9671 16.6821 22.0679C16.5714 22.1712 16.4361 22.373 16.4361 22.6165C16.4361 22.7986 16.4952 22.8675 16.5345 22.9388C16.5075 22.9708 16.4952 22.9905 16.4337 23.052C16.0548 23.4308 15.7916 23.8933 15.5874 24.3509C15.489 24.4715 15.1987 24.6584 14.8247 24.7814C14.4311 24.9094 13.9785 24.9832 13.6709 25.0102L13.6242 25.0152L13.5775 25.0275C13.3388 25.0865 13.1986 25.0767 13.2552 25.0988C13.1789 25.0496 13.1002 24.9266 13.1002 24.9438V24.4887L13.0805 24.4149C12.96 23.9302 12.6648 23.7162 12.6229 23.6572C12.3302 23.1897 12.1186 22.7568 12.0153 22.2893L12.0104 22.2746C11.9784 22.1417 11.9784 21.8268 11.8849 21.4553C11.7397 20.8772 11.3904 20.4934 11.1419 20.1564C10.8959 19.8194 10.768 19.5709 10.768 19.4036C10.768 19.1822 10.8615 18.9214 11.0091 18.5819C11.1567 18.2424 11.3535 17.834 11.3953 17.3149L11.3978 17.2879V17.2633C11.3978 16.3653 11.0681 15.6199 10.5736 14.9852C10.1972 14.503 10.1972 14.3529 10.1357 13.6764L10.1308 13.6051L10.1284 13.5952C10.1284 13.5903 10.1284 13.5977 10.1308 13.5854C10.148 13.5067 10.2022 13.3369 10.2022 13.1057C10.2022 12.7686 10.0988 12.5571 9.97337 12.3184C9.8479 12.0798 9.70768 11.851 9.4469 11.6566L9.13447 11.4229L8.78759 11.5976C8.64736 11.6665 8.62522 11.6542 8.62768 11.6566L8.61292 11.6468L8.60062 11.637C8.63998 11.664 8.61784 11.6542 8.55388 11.5582C8.49975 11.4771 8.38167 11.3245 8.20946 11.1868C7.98067 10.9752 7.71989 10.8423 7.44436 10.7784C7.1516 10.707 6.83671 10.6874 6.50459 10.8202C6.08145 10.9899 5.81329 11.1056 5.77147 11.0982L5.71981 11.0884H5.66814C5.71243 11.0884 5.63616 11.0834 5.52792 11.0515C5.41721 11.0195 5.27206 10.9653 5.03835 10.9653C4.71361 10.9653 4.4799 11.0761 4.30769 11.1548C4.13548 11.231 4.01002 11.2827 3.97065 11.2925C3.98787 11.2876 3.69266 11.2237 3.40974 11.0539C3.05303 10.8399 3.00382 10.8596 2.82177 10.6332L2.81439 10.6234L2.80455 10.6135C2.36419 10.1092 1.86478 9.68116 1.33339 9.26048C1.4318 9.06859 1.64091 8.79059 1.7959 8.33055C1.94597 7.87542 2.08127 7.19151 1.62861 6.61584C1.4933 6.42395 1.3703 6.32308 1.29649 6.24436C1.30387 6.21976 1.29403 6.25666 1.31863 6.20746C1.58187 5.68345 1.92383 5.33657 2.42569 5.00199H2.42815C2.69139 4.847 3.3507 4.58377 3.56473 3.83097L3.56965 3.82113L3.57211 3.81129C3.6779 3.37831 3.63362 3.10769 3.63362 3.03635C3.65084 3.03389 3.71726 2.95762 3.87963 2.84446C4.08628 2.69931 4.4184 2.42624 4.53648 1.97111C4.59307 2.00063 4.62259 2.02031 4.71361 2.0523L4.74313 2.06214L4.77512 2.06706C5.68536 2.27125 6.3988 1.7743 6.80964 1.61439C7.53784 1.39052 8.29802 1.32656 9.16891 1.26505ZM23.1129 17.0099C22.9235 17.3887 22.6726 17.8291 22.3577 18.0161C22.1067 18.144 21.7918 18.2695 21.6664 18.5229C21.4769 18.8378 21.6664 19.2142 21.6024 19.5291C21.6024 19.6545 21.5384 19.78 21.4745 19.9055C21.413 20.2204 21.4769 20.5992 21.6024 20.9141C21.6664 21.1035 21.7918 21.3545 21.9813 21.4184C22.1067 21.4184 22.2937 21.3545 22.4192 21.229C22.5471 21.1035 22.6726 20.8526 22.7341 20.6632C22.798 20.4738 22.798 20.2843 22.798 20.0974C22.862 19.5291 23.1769 18.9608 23.3024 18.3949C23.3663 18.0161 23.3663 17.6397 23.3024 17.2633C23.2384 17.1354 23.1769 17.0099 23.1129 17.0099ZM17.5875 21.8809L17.5899 21.8859C17.5875 21.8785 17.5875 21.8834 17.5875 21.8809ZM17.4448 23.0544H17.4472C17.4472 23.0569 17.4448 23.0569 17.4448 23.0593C17.4276 23.0643 17.4866 23.0544 17.4448 23.0544Z" fill="black"/>
</svg>
