<svg width="24" height="27" viewBox="0 0 24 27" fill="none" xmlns="http://www.w3.org/2000/svg">
<path d="M7.48438 8.5H7.93679L7.98189 8.04983L8.28572 5.01662L8.58954 8.04983L8.63464 8.5H9.08705H9.21429V10.0625V10.3676L9.48561 10.5071C10.3428 10.948 10.9286 11.8392 10.9286 12.8571C10.9286 13.8751 10.3428 14.7663 9.48561 15.2071L9.21429 15.3467V15.6518V21.7143V22.7132L10.0139 22.1145L11.4277 21.0561L12.2944 21.6328L13.0714 22.1498V21.2165V19.9286H16.0714V21.7232V22.7335L16.8747 22.1207C17.2361 21.845 17.6745 21.6429 18.2857 21.6429C18.8947 21.6429 19.331 21.8506 19.6906 22.1339L20.5 22.7713V21.7411V20.5373L23.5 18.1383V25.7857H23.3571V19.4732V18.4323L22.5446 19.0829L20.8303 20.4557L20.6429 20.6058V20.846V23.5078L20.424 23.5112C20.38 23.3296 20.3089 23.1093 20.1936 22.8876C20.0641 22.6376 19.8791 22.3454 19.5564 22.1245C19.2295 21.9007 18.8146 21.7857 18.2857 21.7857C17.7492 21.7857 17.3298 21.8997 17.0006 22.1232C16.6742 22.3448 16.4903 22.6387 16.3627 22.8888C16.2509 23.1078 16.1831 23.3256 16.1414 23.5056L15.9286 23.5039V20.5714V20.0714H15.4286H13.7143H13.2143V20.5714V22.4201L11.724 21.4256L11.4293 21.229L11.1461 21.4418L9.41396 22.7431L9.21429 22.8931V23.1429V25.7857H9.07143V15.9844V15.4345L8.52403 15.4866C8.43793 15.4948 8.35941 15.5 8.28572 15.5C8.21202 15.5 8.1335 15.4948 8.0474 15.4866L7.5 15.4345V15.9844V25.7857H7.35714V20.5714V20.0714H6.85714H5.71429H5.21429V20.5714V22.3571H2.78571V19.4286V18.9286H2.28571H1.14286H0.642857V19.4286V25.7857H0.5V18.7857H2.92857V21.7143V22.2143H3.42857H4.57143H5.07143V21.7143V19.9286H6.85714H7.35714V19.4286V15.6518V15.3467L7.08582 15.2071C6.22863 14.7663 5.64286 13.8751 5.64286 12.8571C5.64286 11.8392 6.22863 10.948 7.08582 10.5071L7.35714 10.3676V10.0625V8.5H7.48438ZM8 8.64286H7.5V9.14286V9.72991V10.2798L8.0474 10.2277C8.1335 10.2195 8.21202 10.2143 8.28572 10.2143C8.35941 10.2143 8.43793 10.2195 8.52403 10.2277L9.07143 10.2798V9.72991V9.14286V8.64286H8.57143H8ZM10.7857 12.8571C10.7857 11.4694 9.67346 10.3571 8.28572 10.3571C6.89796 10.3571 5.78571 11.4694 5.78571 12.8571C5.78571 14.2449 6.89797 15.3571 8.28572 15.3571C9.67346 15.3571 10.7857 14.2449 10.7857 12.8571Z" fill="black" stroke="black"/>
</svg>
