<svg width="20" height="32" viewBox="0 0 20 32" fill="none" xmlns="http://www.w3.org/2000/svg">
<mask id="path-1-inside-1_3034_2451" fill="white">
<path d="M10.0426 0C9.80213 0 9.6151 0.187028 9.6151 0.427492C9.6151 0.619378 9.73169 0.779687 9.90657 0.835553C9.69768 0.896276 9.53737 1.07359 9.53737 1.30191C8.60709 1.45979 7.92456 2.05002 7.92456 3.10903H8.17717V4.64412C5.50777 5.4651 3.51848 7.94747 3.24158 10.5707H3.20272C3.18328 10.5707 3.16385 10.5707 3.14442 10.5707C2.80194 10.5877 2.53476 10.8792 2.55176 11.2217C2.56876 11.5641 2.86024 11.8313 3.20272 11.8143V13.0579C3.20272 13.0774 3.20272 13.0968 3.20272 13.1162V18.0324H4.44633V13.6797H5.68994V18.0324H6.93356V13.6797H8.17717V18.0324H9.42078V13.6797H10.6644V18.0324H11.908V13.6797H13.1516V18.0324H14.3952V13.6797H15.6389V18.0324H16.8825V13.1745C16.8873 13.1357 16.8873 13.0968 16.8825 13.0579V11.8143C17.2249 11.8143 17.5043 11.535 17.5043 11.1925C17.5043 10.85 17.2249 10.5707 16.8825 10.5707H16.8436C16.5667 7.94747 14.5774 5.4651 11.908 4.64412V3.10903H12.1606C12.1606 2.05002 11.4781 1.45979 10.5478 1.30191C10.5478 1.07359 10.3875 0.896276 10.1786 0.835553C10.3535 0.779687 10.4701 0.619378 10.4701 0.427492C10.4701 0.187028 10.2831 0 10.0426 0ZM9.42078 3.10903H10.6644V4.39151C10.4579 4.37208 10.2539 4.35265 10.0426 4.35265C9.83127 4.35265 9.62724 4.37208 9.42078 4.39151V3.10903ZM10.0426 5.59626C12.8432 5.59626 15.1482 8.09078 15.5028 10.5707H4.58235C4.93697 8.09078 7.24203 5.59626 10.0426 5.59626ZM4.44633 11.8143H15.6389V12.4361H4.44633V11.8143ZM1.90081 18.6348C1.88138 18.6396 1.86194 18.6469 1.84251 18.6542H1.33729C1.31786 18.6542 1.29843 18.6542 1.279 18.6542C1.25957 18.6542 1.24014 18.6542 1.22071 18.6542C0.878226 18.6858 0.625617 18.9918 0.657193 19.3343C0.688769 19.6768 0.994815 19.9294 1.33729 19.8978V21.1414C1.33729 21.3066 1.40288 21.4645 1.51946 21.5811C1.63605 21.6977 1.79393 21.7632 1.9591 21.7632V29.2249H3.20272V21.7632H4.44633V29.2249H5.68994V21.7632H6.93356V29.2249H8.17717V21.7632H9.42078V29.2249H10.6644V21.7632H11.908V29.2249H13.1516V21.7632H14.3952V29.2249H15.6389V21.7632H16.8825V29.2249H18.1261V21.7632C18.2912 21.7632 18.4491 21.6977 18.5657 21.5811C18.6823 21.4645 18.7479 21.3066 18.7479 21.1414V19.8978C19.0904 19.8978 19.3697 19.6185 19.3697 19.276C19.3697 18.9335 19.0904 18.6542 18.7479 18.6542H2.09512C2.03197 18.6372 1.96639 18.6299 1.90081 18.6348ZM2.58091 19.8978H17.5043V20.5196H2.58091V19.8978ZM0.540604 29.8467C0.198125 29.8953 -0.0423395 30.2135 0.00623913 30.556C0.0548178 30.8985 0.373008 31.1389 0.715488 31.0903H19.3697C19.5932 31.0928 19.802 30.9762 19.9162 30.7819C20.0279 30.5876 20.0279 30.3495 19.9162 30.1552C19.802 29.9609 19.5932 29.8443 19.3697 29.8467H0.715488C0.696056 29.8467 0.676625 29.8467 0.657193 29.8467C0.637762 29.8467 0.61833 29.8467 0.598899 29.8467C0.579467 29.8467 0.560036 29.8467 0.540604 29.8467Z"/>
</mask>
<path d="M10.0426 0C9.80213 0 9.6151 0.187028 9.6151 0.427492C9.6151 0.619378 9.73169 0.779687 9.90657 0.835553C9.69768 0.896276 9.53737 1.07359 9.53737 1.30191C8.60709 1.45979 7.92456 2.05002 7.92456 3.10903H8.17717V4.64412C5.50777 5.4651 3.51848 7.94747 3.24158 10.5707H3.20272C3.18328 10.5707 3.16385 10.5707 3.14442 10.5707C2.80194 10.5877 2.53476 10.8792 2.55176 11.2217C2.56876 11.5641 2.86024 11.8313 3.20272 11.8143V13.0579C3.20272 13.0774 3.20272 13.0968 3.20272 13.1162V18.0324H4.44633V13.6797H5.68994V18.0324H6.93356V13.6797H8.17717V18.0324H9.42078V13.6797H10.6644V18.0324H11.908V13.6797H13.1516V18.0324H14.3952V13.6797H15.6389V18.0324H16.8825V13.1745C16.8873 13.1357 16.8873 13.0968 16.8825 13.0579V11.8143C17.2249 11.8143 17.5043 11.535 17.5043 11.1925C17.5043 10.85 17.2249 10.5707 16.8825 10.5707H16.8436C16.5667 7.94747 14.5774 5.4651 11.908 4.64412V3.10903H12.1606C12.1606 2.05002 11.4781 1.45979 10.5478 1.30191C10.5478 1.07359 10.3875 0.896276 10.1786 0.835553C10.3535 0.779687 10.4701 0.619378 10.4701 0.427492C10.4701 0.187028 10.2831 0 10.0426 0ZM9.42078 3.10903H10.6644V4.39151C10.4579 4.37208 10.2539 4.35265 10.0426 4.35265C9.83127 4.35265 9.62724 4.37208 9.42078 4.39151V3.10903ZM10.0426 5.59626C12.8432 5.59626 15.1482 8.09078 15.5028 10.5707H4.58235C4.93697 8.09078 7.24203 5.59626 10.0426 5.59626ZM4.44633 11.8143H15.6389V12.4361H4.44633V11.8143ZM1.90081 18.6348C1.88138 18.6396 1.86194 18.6469 1.84251 18.6542H1.33729C1.31786 18.6542 1.29843 18.6542 1.279 18.6542C1.25957 18.6542 1.24014 18.6542 1.22071 18.6542C0.878226 18.6858 0.625617 18.9918 0.657193 19.3343C0.688769 19.6768 0.994815 19.9294 1.33729 19.8978V21.1414C1.33729 21.3066 1.40288 21.4645 1.51946 21.5811C1.63605 21.6977 1.79393 21.7632 1.9591 21.7632V29.2249H3.20272V21.7632H4.44633V29.2249H5.68994V21.7632H6.93356V29.2249H8.17717V21.7632H9.42078V29.2249H10.6644V21.7632H11.908V29.2249H13.1516V21.7632H14.3952V29.2249H15.6389V21.7632H16.8825V29.2249H18.1261V21.7632C18.2912 21.7632 18.4491 21.6977 18.5657 21.5811C18.6823 21.4645 18.7479 21.3066 18.7479 21.1414V19.8978C19.0904 19.8978 19.3697 19.6185 19.3697 19.276C19.3697 18.9335 19.0904 18.6542 18.7479 18.6542H2.09512C2.03197 18.6372 1.96639 18.6299 1.90081 18.6348ZM2.58091 19.8978H17.5043V20.5196H2.58091V19.8978ZM0.540604 29.8467C0.198125 29.8953 -0.0423395 30.2135 0.00623913 30.556C0.0548178 30.8985 0.373008 31.1389 0.715488 31.0903H19.3697C19.5932 31.0928 19.802 30.9762 19.9162 30.7819C20.0279 30.5876 20.0279 30.3495 19.9162 30.1552C19.802 29.9609 19.5932 29.8443 19.3697 29.8467H0.715488C0.696056 29.8467 0.676625 29.8467 0.657193 29.8467C0.637762 29.8467 0.61833 29.8467 0.598899 29.8467C0.579467 29.8467 0.560036 29.8467 0.540604 29.8467Z" fill="black" stroke="black" stroke-width="2" mask="url(#path-1-inside-1_3034_2451)"/>
</svg>
