<svg width="24" height="19" viewBox="0 0 24 19" fill="none" xmlns="http://www.w3.org/2000/svg">
<path d="M7.49997 0C7.37107 0.00195291 7.24803 0.0527321 7.15624 0.144525C6.79297 0.294909 6.50002 0.585911 6.50002 0.999955C6.49806 1.17963 6.59181 1.3476 6.74805 1.43939C6.90429 1.52923 7.09569 1.52923 7.25194 1.43939C7.40818 1.3476 7.50192 1.17963 7.49997 0.999955V3.79085C7.29881 3.98029 6.85547 4.35527 6.17581 4.65018C5.23445 5.06032 3.90834 5.29859 2.20333 4.54277C2.01975 4.46269 1.80687 4.49784 1.66039 4.63456C1.51391 4.77127 1.46313 4.9822 1.53149 5.16969C1.53149 5.16969 2.32833 7.25358 4.50011 8.12268V10.1656C3.96302 10.3843 2.35372 10.9136 0.73465 10.0562C0.539347 9.95463 0.301076 9.98979 0.146786 10.146C-0.00945665 10.3003 -0.0446116 10.5386 0.0588998 10.7339C0.0588998 10.7339 1.16822 12.8119 3.50015 13.6498V18.4992C3.50015 18.7745 3.72475 18.9991 4.00013 18.9991H9.4159C9.47058 19.0089 9.52527 19.0089 9.578 18.9991H14.4157C14.4704 19.0089 14.525 19.0089 14.5778 18.9991H19.9994C20.2748 18.9991 20.4994 18.7745 20.4994 18.4992V13.6498C22.8313 12.8119 23.9426 10.7339 23.9426 10.7339C24.0441 10.5386 24.009 10.3003 23.8528 10.146C23.6985 9.98979 23.4602 9.95463 23.2649 10.0562C21.6829 10.894 20.0795 10.396 19.4994 10.1656V8.12268C21.6712 7.25358 22.468 5.16969 22.468 5.16969C22.5364 4.9822 22.4856 4.77127 22.3391 4.63456C22.1927 4.49784 21.9798 4.46269 21.7962 4.54277C20.0912 5.29859 18.7651 5.06032 17.8237 4.65018C17.1441 4.35527 16.7007 3.98029 16.4996 3.79085V0.999955C16.4976 1.17963 16.5914 1.3476 16.7476 1.43939C16.9038 1.52923 17.0952 1.52923 17.2515 1.43939C17.4077 1.3476 17.5015 1.17963 17.4995 0.999955C17.4995 0.585911 17.2066 0.294909 16.8433 0.144525C16.7515 0.0527321 16.6285 0.00195291 16.4996 0C16.3707 0.00195291 16.2476 0.0527321 16.1558 0.144525C15.7926 0.294909 15.4996 0.585911 15.4996 0.999955V1.49993H8.49993V0.999955C8.49993 0.585911 8.20697 0.294909 7.84371 0.144525C7.75191 0.0527321 7.62887 0.00195291 7.49997 0ZM8.49993 2.49989H15.4996V5.99973C15.4977 6.17941 15.5914 6.34737 15.7476 6.43916C15.9039 6.529 16.0953 6.529 16.2515 6.43916C16.4078 6.34737 16.5015 6.17941 16.4996 5.99973V5.0486C16.7613 5.22633 17.0581 5.40796 17.4253 5.56811C18.2944 5.947 19.4799 6.17941 20.8587 5.88841C20.3021 6.65986 19.3842 7.49966 17.4995 7.49966H14.5778C14.5485 7.49576 14.5211 7.49185 14.4918 7.49185C14.4684 7.4938 14.443 7.49576 14.4196 7.49966H9.578C9.54871 7.49576 9.52136 7.49185 9.49207 7.49185C9.46863 7.4938 9.44324 7.49576 9.41981 7.49966H6.50002C4.61534 7.49966 3.69741 6.65986 3.14079 5.88841C4.51964 6.17941 5.70513 5.947 6.57423 5.56811C6.9414 5.40796 7.23826 5.22633 7.49997 5.0486V5.99973C7.49802 6.17941 7.59176 6.34737 7.74801 6.43916C7.90425 6.529 8.09565 6.529 8.25189 6.43916C8.40813 6.34737 8.50188 6.17941 8.49993 5.99973V4.06427C8.50578 4.01935 8.50578 3.97638 8.49993 3.93146V2.49989ZM5.50006 8.40587C5.81255 8.46056 6.14261 8.49962 6.50002 8.49962H8.9999V9.99955H5.50006V8.40587ZM18.4995 8.40587V9.99955H14.9996V8.49962H17.4995C17.8569 8.49962 18.187 8.46056 18.4995 8.40587ZM9.99986 8.49962H13.9997V9.99955H9.99986V8.49962ZM5.09774 10.9995H18.9018C19.2104 11.1362 20.5092 11.6577 22.1106 11.4311C21.3822 12.1987 20.2885 12.9994 18.4995 12.9994H14.5778C14.5485 12.9955 14.5211 12.9916 14.4918 12.9916C14.4684 12.9936 14.443 12.9955 14.4196 12.9994H9.578C9.54871 12.9955 9.52136 12.9916 9.49207 12.9916C9.46863 12.9936 9.44324 12.9955 9.41981 12.9994H5.50006C3.71108 12.9994 2.61738 12.1987 1.8889 11.4311C3.49039 11.6577 4.78916 11.1362 5.09774 10.9995ZM4.50011 13.9076C4.81845 13.9603 5.14656 13.9994 5.50006 13.9994H8.9999V17.9992H4.50011V13.9076ZM19.4994 13.9076V17.9992H14.9996V13.9994H18.4995C18.853 13.9994 19.1811 13.9603 19.4994 13.9076ZM9.99986 13.9994H13.9997V14.9993H9.99986V13.9994ZM9.99986 15.9993H13.9997V17.9992H9.99986V15.9993Z" fill="black"/>
</svg>
