<svg width="32" height="20" viewBox="0 0 32 20" fill="none" xmlns="http://www.w3.org/2000/svg">
<path d="M13.0951 0.502902L13.0951 0.503083L13.1085 0.501292C13.1647 0.493757 13.2171 0.51953 13.244 0.560523L13.244 0.560537L13.2469 0.564759L16.6645 5.64122L17.0792 6.2573L17.494 5.64122L20.9116 0.564762L20.9129 0.562878C20.9366 0.527345 20.9718 0.507027 21.0093 0.502936C21.0627 0.497453 21.1121 0.521215 21.1409 0.564089L21.1413 0.564744L31.4741 15.914L31.4761 15.917C31.5043 15.9582 31.5083 16.0145 31.4842 16.0612C31.4568 16.1095 31.4088 16.1352 31.3597 16.1342L31.3597 16.1341H31.3493H24.654H23.715L24.2391 16.9132L25.7181 19.1117L25.7201 19.1147C25.7483 19.1559 25.7523 19.2123 25.7282 19.259C25.7008 19.3073 25.6528 19.333 25.6037 19.332L25.6037 19.3319H25.5933H0.650713V19.3318L0.640298 19.332C0.591233 19.333 0.543195 19.3073 0.515809 19.259C0.491732 19.2123 0.495715 19.1559 0.523883 19.1147L0.526011 19.1116L12.9973 0.564528L12.9984 0.562878C13.0222 0.527247 13.0575 0.506916 13.0951 0.502902ZM31.8889 15.6348L21.5561 0.285527L31.9239 16.2993C32.0363 16.0895 32.0238 15.8322 31.8889 15.6348ZM21.4316 1.50572L21.0172 0.888639L20.6018 1.50511L17.424 6.22182L17.236 6.50097L17.4238 6.78027L23.3797 15.6341L23.5283 15.855H23.7946H30.1301H31.0682L30.5452 15.0763L21.4316 1.50572ZM13.5365 1.52482L13.1211 0.909189L12.707 1.52563L1.45483 18.2739L0.93158 19.0528H1.86986H24.3742H25.3133L24.789 18.2736L23.3625 16.1538C23.3597 16.148 23.3564 16.1407 23.3504 16.1274L23.3129 16.0449L23.2625 15.9945L23.2592 15.9894L23.2549 15.9824L23.2503 15.9756L16.9947 6.6621L16.9795 6.63957L16.9621 6.61881C16.9507 6.60537 16.9424 6.59128 16.9382 6.58163L16.9199 6.53946L16.8941 6.50134L13.5365 1.52482Z" fill="black" stroke="black"/>
</svg>
