<svg width="247" height="230" viewBox="0 0 247 230" fill="none" xmlns="http://www.w3.org/2000/svg">
<path d="M123.398 196.678C176.253 196.678 219.1 194.346 219.1 191.47C219.1 188.595 176.253 186.263 123.398 186.263C70.5427 186.263 27.6953 188.595 27.6953 191.47C27.6953 194.346 70.5427 196.678 123.398 196.678Z" fill="#F5F5F5"/>
<path d="M95.4557 55.039C91.6106 57.9922 87.8544 62.7532 90.0558 67.919C92.2572 73.0848 106.344 73.6046 109.306 71.4794C113.156 68.7194 109.755 56.4282 106.754 56.3546C106.527 51.796 98.6689 52.5688 95.4557 55.039Z" fill="#263238"/>
<path d="M90.0704 104.788C90.0704 104.788 91.6154 130.98 93.3183 145.162C93.491 158.479 96.7734 188.563 96.7734 188.563H100.382C100.989 173.636 105.446 159.698 102.484 146.533C109.395 120.681 104.661 104.806 104.661 104.806L90.0704 104.788Z" fill="#FFB573"/>
<path d="M93.9995 104.806C93.9995 104.806 101.428 133.86 103.462 146.234C105.604 159.233 108.792 184.46 108.644 188.554H111.759C111.759 188.554 116.991 163.033 112.149 146.694C116.142 109.894 106.29 104.834 106.29 104.834L93.9995 104.806Z" fill="#FFB573"/>
<path d="M76.1859 71.2034C75.954 69.6347 72.8641 69.5014 72.8641 69.5014L71.3833 68.8068C71.1234 68.6584 70.8118 68.6101 70.5143 68.6719C70.2168 68.7337 69.9567 68.9008 69.789 69.138L69.2954 69.9016C69.1517 70.2021 69.1279 70.5406 69.2283 70.8561C69.3288 71.1715 69.5469 71.4432 69.8433 71.622L70.2925 71.9256C71.0566 72.4345 71.9607 72.7298 72.8986 72.7766L74.2659 72.8456C74.5661 72.8617 74.8671 72.8274 75.1543 72.7444C75.4945 72.6447 75.7847 72.4339 75.9715 72.1508C76.1583 71.8677 76.2292 71.5313 76.1711 71.2034H76.1859Z" fill="#FFB573"/>
<path d="M92.4596 80.3803C92.272 80.5597 92.1733 80.6471 92.0351 80.7621L91.6452 81.0841C91.3885 81.2865 91.1219 81.4751 90.8603 81.6637C90.3273 82.0317 89.7843 82.3721 89.2266 82.6941C88.1073 83.3219 86.9314 83.8575 85.7122 84.2949C83.284 85.1752 80.7062 85.6426 78.101 85.6749H77.874C77.755 85.6726 77.6363 85.6634 77.5186 85.6473C77.2867 85.6157 77.0597 85.5586 76.8424 85.4771C76.4764 85.3365 76.1416 85.1338 75.8552 84.8791C75.4842 84.5395 75.1816 84.1407 74.9618 83.7015C74.6539 83.0795 74.4237 82.4267 74.2757 81.7557C74.014 80.601 73.8489 79.4291 73.7821 78.2505C73.6484 75.9932 73.6979 73.7297 73.9302 71.4793C73.9577 71.2278 74.0834 70.9945 74.2835 70.8238C74.4836 70.6531 74.744 70.5568 75.0152 70.5534C75.2865 70.55 75.5496 70.6397 75.7545 70.8053C75.9595 70.9709 76.0919 71.201 76.1267 71.4517V71.4793C76.3932 73.6229 76.6992 75.7987 77.1138 77.8825C77.2966 78.8917 77.5489 79.8889 77.869 80.8679C77.9965 81.2684 78.172 81.6541 78.3922 82.0179C78.4811 82.1513 78.5699 82.2157 78.5304 82.1697C78.4651 82.1038 78.3839 82.0534 78.2935 82.0225C78.2135 81.9886 78.1288 81.9654 78.0418 81.9535H77.9085C78.9696 81.8632 80.0222 81.7002 81.0576 81.4659C82.0837 81.2271 83.0899 80.9197 84.0685 80.5459C85.0431 80.1572 85.9823 79.6957 86.8771 79.1659C87.3262 78.9083 87.7606 78.6369 88.1801 78.3471C88.3875 78.2045 88.5849 78.0573 88.7823 77.9101L89.0686 77.6893L89.2858 77.5099L89.4141 77.4041C89.8446 77.0448 90.4086 76.8564 90.9859 76.8791C91.5633 76.9017 92.1083 77.1337 92.5048 77.5254C92.9013 77.9171 93.118 78.4377 93.1086 78.9762C93.0993 79.5146 92.8646 80.0284 92.4546 80.4079L92.4596 80.3803Z" fill="#FFB573"/>
<path d="M94.888 75.2743C90.9837 74.6671 86.8869 77.1419 84.7645 79.1567C83.6687 82.2295 87.1781 85.9647 87.1781 85.9647C87.1781 85.9647 92.1782 83.1035 93.9798 81.1485C95.7814 79.1935 97.1388 75.6239 94.888 75.2743Z" fill="#E0E0E0"/>
<path d="M106.981 104.457C106.981 104.457 112.489 108.1 113.526 120.212C113.941 124.982 114.686 144.012 116.256 152.2C110.604 155.963 93.6836 155.448 91.033 153.249C91.7833 136.689 84.9915 114.724 89.9175 104.622C98.0716 103.689 106.981 104.457 106.981 104.457Z" fill="#263238"/>
<path opacity="0.2" d="M101.394 139.191C101.468 132.232 100.367 122.654 97.0253 116.978C98.1655 124.062 101.394 139.191 101.394 139.191Z" fill="black"/>
<path d="M87.3311 80.8864C87.3311 84.8286 83.9598 86.8986 87.7753 89.9346C88.0024 93.3386 88.2689 99.4336 89.3893 104.986C90.5493 106.49 99.0292 106.366 107.84 104.586C106.69 99.8246 107.114 92.069 110.13 81.4614C110.291 80.8727 110.319 80.2595 110.214 79.66C110.108 79.0606 109.871 78.488 109.517 77.978C109.163 77.468 108.7 77.0316 108.156 76.6962C107.613 76.3608 107.001 76.1336 106.359 76.0288C105.633 75.9092 104.878 75.7988 104.079 75.7068C101.323 75.3282 98.542 75.1345 95.7567 75.1272C94.8583 75.1272 93.9254 75.1824 93.037 75.2376C91.4935 75.3265 90.0443 75.9601 88.9843 77.0095C87.9243 78.0589 87.3331 79.4452 87.3311 80.8864Z" fill="#E0E0E0"/>
<path d="M105.331 87.731L94.9901 89.9134C94.5966 89.9964 94.3498 90.361 94.4389 90.7277L97.7869 104.505C97.876 104.872 98.2672 105.102 98.6607 105.019L109.001 102.837C109.395 102.754 109.641 102.389 109.552 102.022L106.204 88.2446C106.115 87.8779 105.724 87.648 105.331 87.731Z" fill="#FFA42C"/>
<path d="M96.7785 80.2101C96.7785 80.2101 95.1052 82.0777 93.7232 82.5101L93.5652 83.4301C95.3129 83.2221 96.9259 82.4468 98.1211 81.2405L96.7785 80.2101Z" fill="#FFA42C"/>
<path d="M92.2326 79.0831C92.2326 79.0831 92.1635 81.5119 92.8841 82.6987L92.3461 83.4899C91.1825 82.2558 90.522 80.6795 90.4803 79.0371L92.2326 79.0831Z" fill="#FFA42C"/>
<path d="M103.738 66.9575C103.077 69.4047 102.302 73.9173 104.079 75.6975C104.079 75.6975 97.4596 77.3811 93.1456 82.9011C91.1713 77.1005 95.7765 75.1179 95.7765 75.1179C98.7923 74.6579 98.8318 72.6063 98.4172 70.6375L103.738 66.9575Z" fill="#FFB573"/>
<path opacity="0.2" d="M101.571 68.4617L98.4221 70.6467C98.5239 71.101 98.5834 71.5628 98.5998 72.0267C99.7449 71.9531 101.374 70.8997 101.561 69.8003C101.648 69.358 101.651 68.905 101.571 68.4617Z" fill="black"/>
<path d="M106.808 62.5967C105.54 66.5619 105.095 68.2685 102.425 69.8279C98.4072 72.1693 93.5404 69.7589 93.5108 65.4993C93.5108 61.6629 95.5691 55.8393 100.145 55.2045C104.72 54.5697 108.096 58.6269 106.808 62.5967Z" fill="#FFB573"/>
<path d="M103.491 56.8053C102.292 60.6279 103.319 64.6253 105.767 65.0853C109.168 63.9031 109 60.3841 108.131 58.7741C107.262 57.1641 104.182 54.6019 103.491 56.8053Z" fill="#263238"/>
<path d="M105.352 63.6731C103.461 64.2573 103.096 65.4395 103.096 65.4395C103.096 65.4395 104.394 64.5839 105.638 64.7449C105.458 64.4122 105.36 64.0459 105.352 63.6731Z" fill="#263238"/>
<path d="M100.628 62.2242C100.544 62.5508 100.293 62.7716 100.061 62.721C99.8287 62.6704 99.7053 62.353 99.7892 62.0264C99.8731 61.6998 100.125 61.4744 100.357 61.5296C100.589 61.5848 100.693 61.8976 100.628 62.2242Z" fill="#263238"/>
<path d="M96.2503 61.2535C96.1664 61.5801 95.9147 61.8009 95.6827 61.7457C95.4507 61.6905 95.3273 61.3823 95.4112 61.0511C95.4951 60.7199 95.7468 60.5037 95.9788 60.5589C96.2108 60.6141 96.3392 60.9223 96.2503 61.2535Z" fill="#263238"/>
<path d="M96.0875 60.6003L95.2928 60.1725C95.2928 60.1725 95.5741 60.8901 96.0875 60.6003Z" fill="#263238"/>
<path d="M97.0796 61.7871C96.5778 62.4607 95.9762 63.0647 95.2928 63.5811C95.4429 63.7432 95.6284 63.8734 95.837 63.9631C96.0456 64.0527 96.2724 64.0997 96.5021 64.1009L97.0796 61.7871Z" fill="#ED893E"/>
<path d="M106.833 66.5757C106.572 66.8617 106.247 67.0919 105.882 67.2506C105.516 67.4094 105.119 67.4929 104.716 67.4957C103.684 67.4681 103.506 66.3641 104.074 65.4579C104.567 64.6391 105.732 63.6685 106.631 64.1331C107.529 64.5977 107.534 65.8305 106.833 66.5757Z" fill="#FFB573"/>
<path d="M101.453 60.8165C101.4 60.792 101.359 60.7491 101.339 60.6969C101.26 60.4564 101.123 60.2359 100.938 60.0525C100.753 59.8691 100.526 59.7276 100.273 59.6389C100.218 59.6249 100.172 59.5915 100.143 59.546C100.115 59.5004 100.106 59.4463 100.12 59.3951C100.126 59.3698 100.138 59.3461 100.154 59.3252C100.171 59.3044 100.192 59.287 100.216 59.274C100.24 59.2611 100.267 59.2529 100.294 59.25C100.322 59.2471 100.35 59.2495 100.377 59.2571C100.7 59.3619 100.992 59.536 101.229 59.7653C101.467 59.9946 101.643 60.2728 101.744 60.5773C101.754 60.6017 101.758 60.6278 101.757 60.6538C101.756 60.6799 101.748 60.7054 101.736 60.7288C101.723 60.7521 101.706 60.7728 101.684 60.7895C101.663 60.8062 101.638 60.8185 101.611 60.8257C101.559 60.8413 101.502 60.838 101.453 60.8165Z" fill="#263238"/>
<path d="M94.661 59.2939C94.605 59.2956 94.5504 59.2775 94.508 59.2433C94.4691 59.2056 94.4474 59.1553 94.4474 59.103C94.4474 59.0507 94.4691 59.0004 94.508 58.9627C94.7281 58.7255 95.0064 58.5415 95.3192 58.4261C95.632 58.3108 95.9701 58.2676 96.3047 58.3003C96.3611 58.3093 96.4115 58.3383 96.4455 58.3811C96.4795 58.424 96.4945 58.4774 96.4873 58.5303C96.4788 58.5821 96.4486 58.6287 96.4032 58.6597C96.3578 58.6908 96.3011 58.7038 96.2455 58.6959C95.9806 58.6713 95.7134 58.707 95.4666 58.7999C95.2198 58.8929 95.001 59.0403 94.8289 59.2295C94.8075 59.2508 94.7815 59.2677 94.7525 59.2788C94.7236 59.2899 94.6923 59.295 94.661 59.2939Z" fill="#263238"/>
<path d="M100.456 61.5755L99.6613 61.1431C99.6613 61.1431 99.9426 61.8653 100.456 61.5755Z" fill="#263238"/>
<path d="M100.199 94.2356L96.2502 93.5226L96.6945 97.75C96.6945 97.75 99.656 97.6304 101.344 96.37L101.502 95.818C101.319 94.9026 101.097 94.5668 100.199 94.2356Z" fill="#FFB573"/>
<path d="M93.8762 95.3258L94.3352 97.1152C94.4023 97.3722 94.5703 97.5964 94.806 97.7437C95.0417 97.891 95.3281 97.9507 95.6087 97.911L96.7143 97.75L96.2701 93.5226L94.587 94.093C94.3271 94.1817 94.1112 94.3563 93.9801 94.5835C93.8491 94.8107 93.8122 95.0748 93.8762 95.3258Z" fill="#FFB573"/>
<path d="M109.029 79.1199C110.229 81.2614 111.276 83.4741 112.164 85.7439C112.608 86.8801 113.027 88.0439 113.363 89.2353C113.729 90.4698 113.977 91.7321 114.103 93.0073C114.133 93.3431 114.148 93.6881 114.153 94.0377V94.1619V94.3597C114.141 94.4953 114.114 94.6293 114.074 94.7599C114.001 95.0135 113.888 95.2554 113.738 95.4775C113.509 95.8082 113.21 96.0915 112.859 96.3101C112.43 96.5762 111.957 96.7737 111.458 96.8943C111.08 96.9917 110.696 97.067 110.308 97.1197C108.962 97.2774 107.605 97.3252 106.25 97.2623C103.683 97.1519 101.127 96.8659 98.6046 96.4067C98.3313 96.3646 98.0852 96.2279 97.9152 96.0241C97.7453 95.8203 97.664 95.5642 97.6877 95.307C97.7114 95.0498 97.8382 94.8104 98.0429 94.6365C98.2476 94.4627 98.5152 94.3671 98.7921 94.3689C101.26 94.3275 103.758 94.2677 106.161 94.0975C107.312 94.0232 108.456 93.8694 109.582 93.6375C109.812 93.588 110.038 93.5234 110.258 93.4443C110.367 93.4162 110.469 93.3659 110.554 93.2971C110.46 93.3494 110.381 93.4239 110.327 93.5133C110.262 93.6102 110.212 93.7156 110.179 93.8261C110.162 93.8881 110.149 93.9511 110.14 94.0147C110.137 94.0453 110.137 94.0761 110.14 94.1067C110.14 93.8721 110.095 93.6467 110.056 93.3891C109.624 91.2572 108.951 89.1739 108.047 87.1745C107.154 85.0999 106.132 82.9885 105.085 80.9967V80.9599C104.873 80.4786 104.863 79.9404 105.058 79.4526C105.252 78.9648 105.637 78.5631 106.135 78.3276C106.633 78.0921 107.208 78.04 107.745 78.1818C108.282 78.3235 108.743 78.6486 109.034 79.0923L109.029 79.1199Z" fill="#FFB573"/>
<path d="M106.616 76.1713C109.444 76.6589 110.702 79.0279 112.756 83.7567C112.129 86.9399 107.109 88.6143 107.109 88.6143C107.109 88.6143 104.227 83.8533 103.654 81.3279C103.081 78.8025 103.763 75.6791 106.616 76.1713Z" fill="#E0E0E0"/>
<path d="M100.638 188.6C100.615 188.539 100.57 188.487 100.511 188.452C100.452 188.418 100.382 188.404 100.313 188.411L96.966 188.365C96.6236 188.344 96.2816 188.413 95.9789 188.563C94.4469 189.455 92.726 190.028 90.9344 190.242C90.2236 190.343 90.5444 191.461 92.2226 191.48C94.9917 191.507 95.4951 191.314 97.8594 191.337C99.8782 191.36 98.9157 191.443 100.52 191.48C100.905 191.48 101.221 191.254 101.171 191.02L100.638 188.6Z" fill="#263238"/>
<path d="M112.184 188.6C112.16 188.539 112.115 188.488 112.056 188.453C111.997 188.419 111.927 188.404 111.858 188.411L109.128 188.365C108.786 188.343 108.443 188.411 108.141 188.563C107.154 189.203 107.292 189.943 105.041 190.242C104.331 190.343 104.681 191.461 106.359 191.48C109.128 191.507 108.96 191.337 110.086 191.337C111.211 191.337 110.52 191.443 112.129 191.48C112.514 191.48 112.825 191.254 112.766 191.02L112.184 188.6Z" fill="#263238"/>
<path d="M94.9572 80.9186C96.359 80.9738 98.9306 82.0456 99.7549 83.191C100.92 82.064 105.471 79.4466 105.55 75.9C104.993 75.4008 104.291 75.0649 103.531 74.934C103.531 74.934 97.4597 77.671 94.9572 80.9186Z" fill="#FAFAFA"/>
<path d="M92.6866 80.7346C92.6866 80.7346 92.3066 77.8688 96.0282 75.0858C95.6531 74.8006 94.1822 75.1226 94.1822 75.1226C94.1822 75.1226 89.8337 76.866 89.962 81.3786C90.7457 80.8416 91.7231 80.6105 92.6866 80.7346Z" fill="#FAFAFA"/>
<path d="M92.1337 81.9489C91.5957 82.1835 91.3835 83.8165 92.1337 84.1983C92.884 84.5801 92.8099 83.0207 93.2443 82.4871C93.6787 81.9535 93.0765 81.5395 92.1337 81.9489Z" fill="#FFA42C"/>
<path d="M92.7952 82.5838C92.4102 83.0438 92.9088 84.6078 93.738 84.6032C94.5673 84.5986 93.8515 83.2232 94.0144 82.5424C94.1773 81.8616 93.4517 81.7742 92.7952 82.5838Z" fill="#FFA42C"/>
<path d="M92.9088 83.7475C91.9858 82.4181 91.9216 89.4239 94.1576 92.1839C94.0095 89.4653 95.5742 85.6105 92.9088 83.7475Z" fill="#FFA42C"/>
<path d="M92.8248 83.6877C92.4151 82.3353 90.3568 88.2601 91.497 91.1535C92.1436 88.8121 94.5573 85.9233 92.8248 83.6877Z" fill="#FFA42C"/>
<path d="M99.7057 65.3659C99.9208 65.2786 100.127 65.174 100.323 65.0531C100.334 65.0428 100.342 65.0307 100.348 65.0172C100.354 65.0038 100.358 64.9894 100.358 64.9749C100.358 64.9604 100.354 64.946 100.348 64.9326C100.342 64.9191 100.334 64.907 100.323 64.8967C100.302 64.8722 100.272 64.8558 100.24 64.8507C100.207 64.8456 100.173 64.8522 100.145 64.8691C99.7048 65.1442 99.204 65.3238 98.6795 65.3946C98.1551 65.4655 97.6202 65.4258 97.1143 65.2785C97.0994 65.2724 97.0834 65.2691 97.0671 65.2688C97.0508 65.2686 97.0347 65.2713 97.0195 65.2768C97.0044 65.2824 96.9906 65.2907 96.9789 65.3012C96.9672 65.3118 96.9579 65.3244 96.9514 65.3383C96.9403 65.367 96.9419 65.3986 96.9558 65.4262C96.9696 65.4538 96.9947 65.4751 97.0255 65.4855C97.9041 65.755 98.8587 65.7124 99.7057 65.3659Z" fill="#263238"/>
<path d="M85.3815 68.6089H60.1639V69.3725H85.3815V68.6089Z" fill="#FFA42C"/>
<path d="M84.7793 69.3726H60.7661L61.8223 69.9062H83.723L84.7793 69.3726Z" fill="#FFA42C"/>
<path opacity="0.2" d="M84.7793 69.3726H60.7661L61.8223 69.9062H83.723L84.7793 69.3726Z" fill="black"/>
<path d="M68.244 48.1528C68.0964 48.1516 67.9553 48.0964 67.851 47.9992C67.7467 47.902 67.6875 47.7704 67.6862 47.633V45.8896C67.6875 45.7521 67.7467 45.6205 67.851 45.5233C67.9553 45.4261 68.0964 45.371 68.244 45.3698C68.3915 45.371 68.5326 45.4261 68.6369 45.5233C68.7413 45.6205 68.8004 45.7521 68.8017 45.8896V47.633C68.8004 47.7704 68.7413 47.902 68.6369 47.9992C68.5326 48.0964 68.3915 48.1516 68.244 48.1528Z" fill="#263238"/>
<path d="M69.1424 45.7837V45.5537C69.1424 45.3302 68.9479 45.1489 68.708 45.1489H67.7801C67.5402 45.1489 67.3457 45.3302 67.3457 45.5537V45.7837C67.3457 46.0073 67.5402 46.1885 67.7801 46.1885H68.708C68.9479 46.1885 69.1424 46.0073 69.1424 45.7837Z" fill="#263238"/>
<path d="M69.1374 51.9385V46.9659C69.1375 46.9118 69.1147 46.8598 69.0741 46.8211C69.0335 46.7825 68.9783 46.7601 68.9203 46.7589H67.5678C67.5098 46.7601 67.4545 46.7825 67.4139 46.8211C67.3733 46.8598 67.3506 46.9118 67.3506 46.9659V51.9385C67.3508 52.3122 67.266 52.6817 67.1018 53.0227C66.9376 53.3636 66.6977 53.6682 66.398 53.9165C66.0994 54.1666 65.8603 54.4722 65.6962 54.8137C65.5321 55.1552 65.4467 55.525 65.4454 55.8991V68.6549H71.0378V55.8991C71.0374 55.5248 70.9523 55.1548 70.7882 54.8132C70.624 54.4716 70.3845 54.166 70.0851 53.9165C69.7868 53.6675 69.5482 53.3625 69.3849 53.0217C69.2216 52.6809 69.1373 52.3118 69.1374 51.9385Z" fill="#FFA42C"/>
<path d="M71.0376 57.408H67.3456V65.6558H71.0376V57.408Z" fill="#E0E0E0"/>
<path d="M76.2796 68.6089H75.6133C75.8352 68.6228 76.0578 68.6228 76.2796 68.6089Z" fill="#FFA42C"/>
<path d="M80.3025 68.6089H79.6312C79.8547 68.6228 80.079 68.6228 80.3025 68.6089Z" fill="#FFA42C"/>
<path opacity="0.2" d="M75.3862 58.88V60.973C75.3862 62.6382 76.403 64.0228 77.6912 64.193V67.873C77.6912 68.4388 77.0989 68.5998 76.6399 68.6366H79.2707C78.8117 68.5998 78.2194 68.4388 78.2194 67.873V64.193C79.5077 64.0274 80.5245 62.6428 80.5245 60.973V58.88H75.3862Z" fill="#FFA42C"/>
<path d="M105.969 56.9112C103.995 57.6932 97.3807 57.9324 94.7894 57.408C97.4696 53.8798 103.491 52.8448 105.969 56.9112Z" fill="#263238"/>
<path d="M112.193 69.5151C112.174 69.5147 112.155 69.5104 112.138 69.5025C112.121 69.4945 112.106 69.4831 112.095 69.4691C112.03 69.3863 110.574 67.3899 110.545 62.0447C110.545 59.8137 109.809 58.0197 108.57 57.1135C108.248 56.8656 107.869 56.6915 107.461 56.6052C107.054 56.519 106.631 56.5229 106.226 56.6167C106.21 56.62 106.193 56.6204 106.177 56.6178C106.161 56.6152 106.146 56.6097 106.132 56.6016C106.119 56.5934 106.107 56.5829 106.097 56.5705C106.088 56.5581 106.081 56.5441 106.078 56.5293C106.074 56.5145 106.074 56.4992 106.077 56.4842C106.079 56.4693 106.085 56.455 106.094 56.4422C106.103 56.4294 106.114 56.4183 106.127 56.4095C106.141 56.4008 106.156 56.3946 106.171 56.3913C106.612 56.2936 107.071 56.2913 107.512 56.3846C107.954 56.4779 108.366 56.6643 108.718 56.9295C110.026 57.8817 110.782 59.7447 110.796 62.0401C110.826 67.3025 112.277 69.3173 112.277 69.3357C112.287 69.348 112.293 69.362 112.297 69.3768C112.301 69.3916 112.301 69.407 112.298 69.4219C112.296 69.4369 112.29 69.4512 112.281 69.464C112.272 69.4769 112.261 69.488 112.248 69.4967C112.231 69.5063 112.213 69.5126 112.193 69.5151Z" fill="#263238"/>
<path d="M147.712 42.4351C149.089 44.1923 149.084 46.9293 148.615 48.4151C146.148 47.3709 146.533 44.3717 146.533 44.3717L147.712 42.4351Z" fill="#263238"/>
<path d="M155.091 64.1838L156.513 65.642L157.994 67.1232C158.981 68.103 159.968 69.0598 160.985 69.9798C161.478 70.4398 161.972 70.8998 162.5 71.3046C163.028 71.7094 163.487 72.1418 164.006 72.5144C164.524 72.887 164.993 73.2182 165.452 73.5034C165.797 73.7194 166.16 73.9101 166.538 74.0738L165.783 73.9634C165.559 73.9382 165.332 73.9853 165.141 74.0968C165.141 74.0968 165.259 74.0968 165.427 74.0048C165.885 73.7431 166.311 73.4346 166.696 73.0848C167.706 72.1898 168.651 71.2324 169.524 70.219C170.467 69.1656 171.385 68.0432 172.298 66.907C173.211 65.7708 174.124 64.607 175.023 63.4616L175.067 63.411C175.382 63.0241 175.832 62.7523 176.339 62.6429C176.847 62.5336 177.38 62.5935 177.845 62.8124C178.31 63.0312 178.677 63.3951 178.884 63.8407C179.091 64.2863 179.124 64.7854 178.976 65.251C178.476 66.7048 177.898 68.1341 177.244 69.5336C176.597 70.9136 175.881 72.2936 175.072 73.6736C174.232 75.1089 173.261 76.474 172.17 77.7538C171.519 78.5104 170.784 79.2011 169.978 79.8146C169.444 80.2171 168.859 80.557 168.236 80.8266C167.32 81.2241 166.318 81.4163 165.309 81.3878C165.122 81.3813 164.937 81.3582 164.756 81.3188L164.549 81.2774C163.467 81.0359 162.421 80.6729 161.434 80.1964C160.607 79.8038 159.807 79.3628 159.04 78.8762C157.633 77.9934 156.29 77.0237 155.022 75.9736C153.778 74.9662 152.623 73.9128 151.503 72.841C150.95 72.2982 150.397 71.7554 149.869 71.1942C149.341 70.633 148.833 70.0856 148.275 69.4462C147.652 68.6037 147.387 67.5762 147.529 66.5618C147.671 65.5475 148.211 64.6181 149.045 63.953C149.879 63.2878 150.948 62.9339 152.045 62.9596C153.142 62.9852 154.191 63.3885 154.988 64.0918L155.091 64.1838Z" fill="#E0E0E0"/>
<path d="M177.234 65.9456L181.632 66.1434L180.205 60.6234C180.205 60.6234 176.113 60.904 175.457 62.8636C175.388 63.0821 175.402 63.316 175.496 63.526L176.306 65.3338C176.382 65.5073 176.51 65.6569 176.675 65.7653C176.839 65.8736 177.033 65.9361 177.234 65.9456Z" fill="#FF8B7B"/>
<path d="M185.556 62.8682L184.707 61.0282C184.541 60.6716 184.246 60.3809 183.873 60.2074C183.5 60.034 183.073 59.9891 182.668 60.0806L180.2 60.6464L181.627 66.1664L184.588 65.0532C184.808 64.9722 185.009 64.8507 185.177 64.6959C185.346 64.5411 185.48 64.3562 185.57 64.1522C185.66 63.9483 185.705 63.7295 185.703 63.5089C185.701 63.2883 185.65 63.0704 185.556 62.8682Z" fill="#FF8B7B"/>
<path d="M144.691 142.388C140.022 123.248 137.134 100.17 137.134 100.17L156.281 99.8844C156.281 99.8844 156.014 130.985 156.054 144.012C156.103 157.559 157.11 187.372 157.11 187.372H151.3C151.3 187.372 143.803 159.132 144.691 142.388Z" fill="#263238"/>
<path d="M143.201 115.98L140.17 120.166C141.073 125.391 142.144 131.146 143.393 136.786C143.916 128.119 143.828 118.05 143.201 115.98Z" fill="black"/>
<path d="M164.86 190.026C164.86 190.026 156.858 188.269 156.256 187.087H151.814L151.844 191.47H154.588L155.008 191.066L155.703 191.47C157.925 191.47 163.828 191.388 165.225 190.923C165.253 190.757 165.233 190.587 165.169 190.43C165.105 190.272 164.999 190.133 164.86 190.026Z" fill="#263238"/>
<path d="M126.882 141.85C129.099 122.599 129.03 109.738 131.73 100.252L149.163 100.009C149.163 100.009 141.902 130.543 138.531 143.249C135.16 155.954 129.39 187.363 129.39 187.363H124.01C124.01 187.363 122.317 156.736 126.882 141.85Z" fill="#263238"/>
<path d="M130.348 104.001C129.963 106.301 128.591 119.908 127.169 124.862C138.793 129.669 156.562 127.779 157.11 124.66C156.947 118.882 156.617 104.001 156.617 104.001H130.348Z" fill="#E0E0E0"/>
<path opacity="0.1" d="M130.994 106.527C131.806 107.753 132.787 108.874 133.912 109.862C133.912 109.862 131.404 109.443 130.994 106.527Z" fill="black"/>
<path opacity="0.1" d="M154.361 109.733C155.027 108.807 155.568 107.807 155.97 106.757C155.97 106.757 156.083 109.107 154.361 109.733Z" fill="black"/>
<path opacity="0.1" d="M131.103 108.261C131.371 109.182 131.768 110.067 132.283 110.892C131.813 110.626 131.446 110.228 131.234 109.755C131.022 109.283 130.976 108.76 131.103 108.261Z" fill="black"/>
<path d="M134.405 190.026C134.405 190.026 129.415 188.269 128.842 187.087H124.4L124.311 191.47H127.949L128.378 191.066L129.064 191.47C131.285 191.47 133.334 191.388 134.745 190.923C134.779 190.759 134.765 190.589 134.705 190.432C134.646 190.274 134.542 190.134 134.405 190.026Z" fill="#263238"/>
<path d="M131.088 61.8471C137.248 61.1341 146.044 61.2031 151.942 62.1507C153.416 62.3997 154.769 63.0742 155.808 64.0788C156.848 65.0835 157.523 66.3673 157.737 67.7489C158.976 76.0519 157.91 90.5603 157.12 105.165C143.645 109.462 129.43 105.105 129.43 105.105C128.936 102.161 130.042 92.5061 130.782 87.3541C129.671 82.0319 127.327 75.9369 125.757 68.8667C125.567 68.0758 125.556 67.2564 125.727 66.4615C125.898 65.6667 126.246 64.9141 126.748 64.2524C127.251 63.5908 127.897 63.0348 128.644 62.6205C129.392 62.2061 130.224 61.9426 131.088 61.8471Z" fill="#263238"/>
<path opacity="0.1" d="M131.088 61.8471C137.248 61.1341 146.044 61.2031 151.942 62.1507C153.416 62.3997 154.769 63.0742 155.808 64.0788C156.848 65.0835 157.523 66.3673 157.737 67.7489C158.976 76.0519 157.91 90.5603 157.12 105.165C143.645 109.462 129.43 105.105 129.43 105.105C128.936 102.161 130.042 92.5061 130.782 87.3541C129.671 82.0319 127.327 75.9369 125.757 68.8667C125.567 68.0758 125.556 67.2564 125.727 66.4615C125.898 65.6667 126.246 64.9141 126.748 64.2524C127.251 63.5908 127.897 63.0348 128.644 62.6205C129.392 62.2061 130.224 61.9426 131.088 61.8471Z" fill="white"/>
<path d="M137.184 50.8853L144.193 56.2442C143.285 58.4936 142.998 60.8442 146.957 61.732C147.944 62.951 146.463 65.09 144.706 65.9226C140.55 65.0394 138.156 63.9998 136.542 61.9344C137.051 60.3152 137.86 54.2111 137.184 50.8853Z" fill="#FF8B7B"/>
<path opacity="0.2" d="M140.106 53.1208L144.193 56.2397C143.971 56.7597 143.806 57.299 143.699 57.8497C142.115 57.9555 139.914 56.4697 139.815 55.1172C139.779 54.4407 139.878 53.7639 140.106 53.1208Z" fill="black"/>
<path d="M136.177 47.2328C136.819 51.3314 136.967 53.7602 139.39 55.683C143.038 58.5764 148.329 56.2212 149.02 52.003C149.637 48.2172 148.487 42.1498 144.01 40.8802C143.017 40.5986 141.963 40.5569 140.948 40.7589C139.933 40.961 138.989 41.4002 138.206 42.0353C137.423 42.6704 136.826 43.4805 136.471 44.3897C136.116 45.2989 136.015 46.2772 136.177 47.2328Z" fill="#FF8B7B"/>
<path d="M136.138 49.1234C136.589 49.5798 137.173 49.9047 137.819 50.059C138.464 50.2132 139.144 50.1902 139.775 49.9928C138.719 48.9946 139.746 45.3422 138.689 43.8564C140.733 44.2336 148.69 45.31 149.45 42.7386C150.274 39.9786 146.982 37.7752 145.136 37.5682C145.679 38.7182 145.629 39.5508 143.606 39.1782C141.582 38.8056 133.24 37.0116 134.163 40.6548C131.478 40.6548 131.295 44.298 133.26 46.0414C134.336 46.9686 135.301 48.002 136.138 49.1234Z" fill="#263238"/>
<path d="M134.657 40.48C133.048 40.1074 133.551 38.7274 133.911 38.5848C132.406 38.9252 131.858 40.3052 133.674 40.94C135.491 41.5748 134.657 40.48 134.657 40.48Z" fill="#263238"/>
<path d="M134.938 49.749C135.088 50.1981 135.332 50.6151 135.655 50.9759C135.979 51.3367 136.376 51.6342 136.824 51.8512C138.033 52.4262 138.912 51.4786 138.798 50.2918C138.704 49.22 137.969 47.633 136.646 47.5318C136.355 47.5183 136.065 47.573 135.803 47.6909C135.54 47.8088 135.314 47.9861 135.144 48.2067C134.974 48.4272 134.866 48.684 134.83 48.9534C134.794 49.2229 134.831 49.4964 134.938 49.749Z" fill="#FF8B7B"/>
<path d="M142.352 47.38C142.382 47.7158 142.599 47.9734 142.845 47.955C143.092 47.9366 143.25 47.6422 143.221 47.311C143.191 46.9798 142.974 46.7176 142.727 46.736C142.48 46.7544 142.322 47.0442 142.352 47.38Z" fill="#263238"/>
<path d="M146.656 47.2834C146.686 47.6192 146.903 47.8768 147.15 47.8538C147.396 47.8308 147.549 47.5456 147.52 47.2098C147.49 46.874 147.273 46.621 147.026 46.6394C146.779 46.6578 146.626 46.9476 146.656 47.2834Z" fill="#263238"/>
<path d="M145.782 47.7343C146.301 48.723 146.966 49.6395 147.756 50.4575C147.169 51.0647 146.063 50.9175 146.063 50.9175L145.782 47.7343Z" fill="#FF5652"/>
<path d="M141.686 46.3128C141.652 46.3217 141.616 46.3217 141.582 46.3128C141.556 46.3037 141.531 46.2897 141.511 46.2717C141.491 46.2536 141.474 46.2318 141.463 46.2077C141.452 46.1836 141.447 46.1577 141.447 46.1315C141.447 46.1053 141.452 46.0793 141.463 46.0552C141.582 45.7599 141.774 45.495 142.024 45.2822C142.273 45.0695 142.574 44.9151 142.9 44.8316C142.955 44.8213 143.013 44.8319 143.06 44.8612C143.108 44.8906 143.14 44.9362 143.152 44.988C143.163 45.0399 143.151 45.0937 143.12 45.1377C143.088 45.1817 143.039 45.2123 142.984 45.2226C142.725 45.2908 142.488 45.4151 142.292 45.5855C142.095 45.7558 141.945 45.9673 141.853 46.2024C141.838 46.2326 141.814 46.2585 141.785 46.2778C141.755 46.2971 141.721 46.3092 141.686 46.3128Z" fill="#263238"/>
<path d="M149.154 45.7792C149.118 45.7794 149.083 45.771 149.052 45.7549C149.021 45.7388 148.995 45.7155 148.976 45.6872C148.845 45.4722 148.66 45.2895 148.438 45.1543C148.215 45.0191 147.962 44.9352 147.698 44.9098C147.67 44.9092 147.642 44.9035 147.617 44.893C147.591 44.8825 147.568 44.8674 147.549 44.8486C147.53 44.8298 147.515 44.8077 147.504 44.7835C147.494 44.7592 147.49 44.7334 147.49 44.7074C147.493 44.6545 147.517 44.6047 147.559 44.5686C147.601 44.5325 147.656 44.513 147.712 44.5142C148.047 44.5426 148.369 44.6451 148.652 44.8132C148.936 44.9812 149.172 45.2099 149.341 45.4802C149.369 45.5251 149.378 45.5783 149.365 45.6288C149.352 45.6793 149.319 45.7233 149.272 45.7516C149.237 45.7736 149.195 45.7833 149.154 45.7792Z" fill="#263238"/>
<path d="M136.542 61.9345C136.542 61.9345 143.734 72.1189 146.468 79.3041C149.163 70.8723 149.474 64.1241 146.962 61.7321C146.152 62.6843 142.895 63.9723 136.542 61.9345Z" fill="#E0E0E0"/>
<path d="M134.089 69.46L133.393 71.3L132.702 73.2136C132.243 74.4878 131.823 75.7666 131.434 77.0224C131.236 77.6526 131.063 78.2782 130.905 78.8946C130.747 79.511 130.594 80.1228 130.486 80.707C130.377 81.2912 130.293 81.857 130.239 82.363C130.211 82.7505 130.211 83.1393 130.239 83.5268L129.982 82.8552C129.775 82.4918 129.563 82.3952 129.553 82.3952C129.543 82.3952 129.622 82.4872 129.775 82.5884C130.235 82.8409 130.723 83.0446 131.231 83.1956C132.544 83.6066 133.884 83.9355 135.244 84.18C136.69 84.4468 138.181 84.64 139.686 84.87C141.192 85.1 142.742 85.261 144.232 85.4588H144.301C144.822 85.5282 145.299 85.7672 145.649 86.1332C145.999 86.4993 146.198 86.9689 146.211 87.4588C146.225 87.9487 146.052 88.4273 145.723 88.8097C145.394 89.1922 144.931 89.4538 144.415 89.5482C142.807 89.8327 141.184 90.0415 139.553 90.1738C137.924 90.3118 136.281 90.3808 134.617 90.3716C132.863 90.3686 131.113 90.2255 129.385 89.9438C128.371 89.7674 127.378 89.4945 126.424 89.1296C125.788 88.8852 125.187 88.5668 124.637 88.182C123.826 87.6235 123.166 86.8957 122.712 86.0568C122.628 85.9006 122.56 85.7373 122.509 85.5692L122.455 85.3806C122.167 84.3792 122.009 83.349 121.986 82.3124C121.962 81.448 121.997 80.583 122.09 79.7226C122.248 78.1509 122.52 76.591 122.904 75.0536C123.255 73.554 123.699 72.105 124.178 70.6744C124.425 69.9614 124.671 69.253 124.948 68.5492C125.224 67.8454 125.501 67.1692 125.841 66.4102C126.287 65.4187 127.128 64.6275 128.189 64.2039C129.249 63.7804 130.444 63.7577 131.522 64.1407C132.599 64.5237 133.475 65.2823 133.963 66.2561C134.452 67.23 134.514 68.3426 134.138 69.3588L134.089 69.46Z" fill="#E0E0E0"/>
<path d="M144.933 86.0523L149.296 86.5583L146.888 91.7609C146.888 91.7609 142.904 90.8409 142.618 88.7985C142.59 88.5727 142.648 88.3448 142.781 88.1545L143.906 86.5031C144.015 86.3455 144.168 86.2196 144.35 86.1398C144.532 86.0601 144.734 86.0297 144.933 86.0523Z" fill="#FF8B7B"/>
<path d="M152.569 90.4084L151.394 92.1012C151.167 92.4266 150.822 92.6661 150.423 92.7773C150.023 92.8885 149.595 92.8641 149.213 92.7084L146.888 91.7608L149.297 86.5582L152.016 88.1268C152.215 88.2413 152.388 88.3916 152.523 88.5689C152.659 88.7462 152.755 88.9469 152.807 89.1594C152.858 89.3719 152.864 89.5918 152.823 89.8062C152.782 90.0207 152.696 90.2254 152.569 90.4084Z" fill="#FF8B7B"/>
<path d="M136.893 60.3521C135.976 60.4877 135.135 60.9094 134.509 61.5481C136.463 63.9788 139.249 65.7151 142.406 66.47C142.179 65.7662 142.86 63.71 143.61 62.974C140.851 62.5922 136.893 60.3521 136.893 60.3521Z" fill="#FAFAFA"/>
<path d="M144.474 60.605C145.41 60.7635 146.3 61.1036 147.085 61.6032C147.085 61.6032 149.849 64.4782 146.592 66.102C146.814 65.3982 145.111 63.5214 143.586 62.974C146.34 62.5922 144.474 60.605 144.474 60.605Z" fill="#FAFAFA"/>
<path d="M143.892 64.6117C141.71 63.5215 139.01 62.3393 139.76 64.2483C140.511 66.1573 139.519 66.8197 140.496 67.4683C141.473 68.1169 143.457 66.3367 144.114 66.0883C144.77 65.8399 143.892 64.6117 143.892 64.6117Z" fill="#FFA42C"/>
<path d="M145.437 64.5978C147.1 63.5536 149.183 62.422 148.813 64.285C148.443 66.148 149.361 66.7966 148.635 67.4268C147.91 68.057 146.044 66.2952 145.452 66.0468C144.859 65.7984 145.437 64.5978 145.437 64.5978Z" fill="#FFA42C"/>
<path d="M143.596 64.4645C144.089 64.1885 145.294 63.8389 145.891 64.5887C146.488 65.3385 146.296 66.5943 145.471 66.7461C145.177 66.8016 144.872 66.7817 144.588 66.6885C144.305 66.5954 144.054 66.4325 143.862 66.2171C144.045 65.9422 144.119 65.6161 144.07 65.2957C144.021 64.9754 143.853 64.6812 143.596 64.4645Z" fill="#FFA42C"/>
<path d="M129.691 187.51L123.704 187.666L123.388 184.506L130.343 184.892L129.691 187.51Z" fill="black"/>
<path d="M157.323 187.501L150.857 187.666L150.141 184.929L157.362 184.276L157.323 187.501Z" fill="black"/>
<path d="M143.23 84.9805C140.207 84.1474 137.089 83.6457 133.941 83.4855C133.27 83.5223 133.013 97.6581 133.067 103.44C133.067 104.222 142.722 104.066 145.19 103.712C145.328 102.097 145.358 90.3119 145.999 86.6273C146.048 86.339 145.992 86.0438 145.84 85.7887C145.688 85.5336 145.449 85.3332 145.16 85.2197C144.549 84.9899 143.885 84.9076 143.23 84.9805Z" fill="white"/>
<path d="M193.769 62.353H166.365V63.0798H193.769V62.353Z" fill="#FFA42C"/>
<path d="M193.197 63.0798H166.938L167.944 63.5904H192.195L193.197 63.0798Z" fill="#FFA42C"/>
<path opacity="0.2" d="M193.197 63.0798H166.938L167.944 63.5904H192.195L193.197 63.0798Z" fill="black"/>
<path d="M181.197 52.0858C181.198 52.2943 181.133 52.4984 181.009 52.6723C180.886 52.8461 180.709 52.9819 180.503 53.0623C180.297 53.1427 180.069 53.1642 179.85 53.1241C179.63 53.084 179.428 52.984 179.27 52.8369C179.111 52.6898 179.003 52.5021 178.959 52.2976C178.915 52.0931 178.937 51.8811 179.022 51.6884C179.108 51.4956 179.253 51.3308 179.439 51.2149C179.625 51.0989 179.843 51.037 180.067 51.037C180.215 51.0364 180.362 51.0631 180.499 51.1155C180.636 51.1679 180.761 51.2451 180.866 51.3426C180.971 51.44 181.054 51.5558 181.111 51.6834C181.168 51.8109 181.197 51.9477 181.197 52.0858Z" fill="#FFA42C"/>
<path d="M191.913 58.9812C191.152 56.7848 189.705 54.85 187.757 53.4244L188.063 53.061C190.09 54.5443 191.596 56.5576 192.387 58.8432L191.913 58.9812Z" fill="#FFA42C"/>
<path d="M186.045 52.3664C185.491 52.0818 184.915 51.8373 184.322 51.635L184.49 51.2026C185.107 51.4191 185.706 51.679 186.282 51.98L186.045 52.3664Z" fill="#FFA42C"/>
<path d="M180.067 52.0858C177.094 52.0858 174.243 53.1864 172.141 55.1456C170.038 57.1047 168.857 59.7618 168.857 62.5324H191.276C191.276 59.7618 190.095 57.1047 187.993 55.1456C185.891 53.1864 183.04 52.0858 180.067 52.0858Z" fill="#FFA42C"/>
<path opacity="0.3" d="M170.402 61.5986H173.3C173.4 61.5969 173.497 61.5631 173.573 61.5027C173.649 61.4424 173.701 61.3592 173.719 61.2674C174.302 58.4062 176.133 55.913 179.045 53.7464C179.111 53.6969 179.158 53.6287 179.179 53.5521C179.2 53.4756 179.193 53.3948 179.16 53.322C179.127 53.2492 179.07 53.1884 178.997 53.1488C178.923 53.1092 178.838 53.0929 178.754 53.1024C176.552 53.3733 174.504 54.3048 172.92 55.7563C171.335 57.2077 170.301 59.1002 169.973 61.1478C169.965 61.2044 169.971 61.2619 169.989 61.3165C170.007 61.3711 170.037 61.4214 170.078 61.4641C170.119 61.5068 170.169 61.5409 170.225 61.5641C170.281 61.5873 170.341 61.599 170.402 61.5986Z" fill="white"/>
<path d="M144.405 52.1134C144.636 52.1228 144.867 52.112 145.096 52.0812C145.127 52.0756 145.154 52.059 145.171 52.0348C145.189 52.0107 145.196 51.9811 145.19 51.9524C145.182 51.9224 145.162 51.8962 145.135 51.8784C145.108 51.8607 145.075 51.8527 145.042 51.8558C144.526 51.9273 144 51.889 143.502 51.7441C143.005 51.5991 142.549 51.3511 142.169 51.0186C142.158 51.0076 142.145 50.9988 142.13 50.9929C142.115 50.9869 142.099 50.9838 142.083 50.9838C142.066 50.9838 142.05 50.9869 142.036 50.9929C142.021 50.9988 142.007 51.0076 141.996 51.0186C141.975 51.0406 141.963 51.0693 141.963 51.0991C141.963 51.1289 141.975 51.1576 141.996 51.1796C142.649 51.7555 143.506 52.0878 144.405 52.1134Z" fill="#263238"/>
</svg>
