<svg width="148" height="44" viewBox="0 0 148 44" fill="none" xmlns="http://www.w3.org/2000/svg">
<path d="M142.765 43.5955H6.01966C4.6529 43.5924 3.34305 43.0478 2.37698 42.081C1.41091 41.1142 0.867357 39.8039 0.865372 38.4372L0.865372 5.15078C0.868155 3.78496 1.4122 2.47592 2.37831 1.51047C3.34443 0.545011 4.65383 0.00185779 6.01966 4.16784e-06H142.765C144.139 -0.00172994 145.459 0.537732 146.439 1.50168C147.419 2.46562 147.979 3.77653 148 5.15078V38.4372C147.98 39.8121 147.419 41.1239 146.44 42.0891C145.46 43.0543 144.14 43.5953 142.765 43.5955V43.5955Z" fill="#A6A6A6"/>
<path d="M146.945 38.4382C146.945 38.9867 146.837 39.5299 146.627 40.0366C146.417 40.5433 146.109 41.0037 145.721 41.3913C145.333 41.779 144.872 42.0864 144.365 42.2959C143.858 42.5054 143.315 42.6129 142.767 42.6123H6.01961C4.91127 42.6135 3.84784 42.1745 3.06318 41.3917C2.27853 40.6089 1.83691 39.5465 1.83545 38.4382V5.1498C1.83678 4.04092 2.27818 2.9779 3.0627 2.19422C3.84723 1.41054 4.91072 0.970286 6.01961 0.970154H142.766C143.314 0.970154 143.858 1.07827 144.365 1.28833C144.872 1.49839 145.333 1.80628 145.721 2.19441C146.109 2.58254 146.416 3.0433 146.626 3.5504C146.836 4.05749 146.944 4.60097 146.944 5.1498V38.4382H146.945Z" fill="black"/>
<path d="M33.7022 21.5622C33.6707 18.0495 36.5785 16.3407 36.7113 16.2611C36.1345 15.4373 35.3735 14.7593 34.4889 14.2809C33.6043 13.8025 32.6204 13.5368 31.6152 13.505C29.4715 13.2795 27.3919 14.7878 26.3 14.7878C25.1861 14.7878 23.5044 13.5271 21.6899 13.5637C20.5179 13.6011 19.3757 13.9417 18.3745 14.5521C17.3733 15.1626 16.5475 16.0221 15.9774 17.0468C13.508 21.3237 15.3521 27.6069 17.7172 31.063C18.9008 32.7557 20.2839 34.6453 22.0943 34.5792C23.8652 34.506 24.5272 33.4502 26.6643 33.4502C28.782 33.4502 29.4033 34.5792 31.2494 34.5366C33.15 34.506 34.3466 32.8364 35.4892 31.1291C36.3396 29.9234 36.994 28.5907 37.4279 27.1805C36.324 26.713 35.3822 25.931 34.7197 24.9319C34.0572 23.9329 33.7033 22.7609 33.7022 21.5622Z" fill="white"/>
<path d="M30.2137 11.2326C31.2503 9.98895 31.761 8.39008 31.6373 6.77582C30.0543 6.94236 28.592 7.69873 27.5413 8.89446C26.6629 9.9212 25.8782 11.6039 26.0806 13.1864C27.6295 13.3021 29.22 12.4051 30.2137 11.2326Z" fill="white"/>
<path d="M59.3324 34.3357H56.8574L55.5015 30.0764H50.7907L49.4993 34.3357H47.0876L51.7568 19.8334H54.6406L59.3324 34.3357ZM55.0926 28.2879L53.8664 24.5007C53.7368 24.1138 53.4931 23.203 53.1353 21.7682H53.0917C52.9491 22.3852 52.7194 23.296 52.4027 24.5007L51.2001 28.2879H55.0926Z" fill="white"/>
<path d="M71.3397 28.9775C71.3397 30.7561 70.859 32.1617 69.8975 33.1942C69.4923 33.6395 68.9964 33.9928 68.4433 34.2304C67.8901 34.4681 67.2924 34.5844 66.6905 34.5718C65.3128 34.5718 64.3228 34.077 63.7205 33.0875H63.6779V38.5971H61.3543V27.3199C61.3543 26.2018 61.3256 25.0541 61.2682 23.8768H63.3121L63.4419 25.5345H63.4855C63.8378 24.9959 64.3109 24.547 64.8672 24.2235C65.4235 23.8999 66.0476 23.7107 66.69 23.6709C67.3323 23.6311 67.975 23.7418 68.567 23.9942C69.159 24.2465 69.6839 24.6336 70.1 25.1246C70.9655 26.2167 71.4059 27.5856 71.3397 28.9775ZM68.9725 29.0627C69.0088 28.1725 68.7681 27.2929 68.2835 26.5452C68.0594 26.2178 67.7569 25.9517 67.4037 25.7711C67.0505 25.5905 66.6577 25.501 66.2611 25.5109C65.6902 25.5108 65.1378 25.7129 64.7017 26.0812C64.2355 26.4614 63.9129 26.9892 63.7872 27.5774C63.7235 27.8086 63.6873 28.0464 63.6794 28.286V30.0298C63.6607 30.7378 63.9114 31.4264 64.381 31.9565C64.6072 32.2136 64.8875 32.4174 65.2019 32.5532C65.5162 32.6891 65.8567 32.7536 66.1989 32.7423C66.597 32.7583 66.9927 32.6741 67.3497 32.4974C67.7068 32.3207 68.0137 32.0572 68.2424 31.731C68.7637 30.942 69.0202 30.0073 68.9745 29.0627H68.9725Z" fill="white"/>
<path d="M83.369 28.9775C83.369 30.7561 82.8879 32.1616 81.9258 33.1942C81.5208 33.6397 81.0249 33.9932 80.4717 34.2308C79.9185 34.4684 79.3208 34.5847 78.7188 34.5717C77.3411 34.5717 76.3515 34.077 75.7498 33.0875H75.7062V38.5971H73.3846V27.3199C73.3846 26.2017 73.3559 25.0541 73.2984 23.8768H75.3419L75.4717 25.5345H75.5153C75.8676 24.9954 76.341 24.5461 76.8976 24.2224C77.4543 23.8986 78.0788 23.7093 78.7216 23.6695C79.3643 23.6298 80.0075 23.7406 80.5998 23.9933C81.1921 24.246 81.7172 24.6336 82.1333 25.1251C82.996 26.2183 83.4348 27.5864 83.369 28.9775V28.9775ZM81.0018 29.0627C81.0378 28.1723 80.7967 27.2927 80.3118 26.5452C80.0879 26.2177 79.7856 25.9514 79.4324 25.7708C79.0792 25.5901 78.6864 25.5008 78.2899 25.5109C77.7186 25.5107 77.1656 25.7127 76.729 26.0812C76.263 26.4614 75.9408 26.9892 75.8155 27.5774C75.7523 27.8087 75.7161 28.0464 75.7077 28.286V30.0298C75.6887 30.7371 75.9379 31.4253 76.4052 31.9565C76.6319 32.2136 76.9126 32.4173 77.2273 32.5532C77.5419 32.689 77.8827 32.7536 78.2252 32.7422C78.6233 32.7583 79.019 32.6741 79.376 32.4974C79.7331 32.3207 80.04 32.0572 80.2687 31.731C80.7904 30.9421 81.0471 30.0074 81.0018 29.0627Z" fill="white"/>
<path d="M96.818 30.2683C96.837 30.8341 96.7314 31.3972 96.5088 31.9178C96.2862 32.4384 95.9519 32.9037 95.5297 33.2809C94.5846 34.1277 93.2677 34.5511 91.579 34.5511C90.266 34.6138 88.9624 34.3009 87.8208 33.6492L88.359 31.7124C89.3703 32.3272 90.5329 32.648 91.7163 32.639C92.4465 32.6828 93.1693 32.4732 93.7628 32.0457C94.0003 31.8569 94.1901 31.615 94.3169 31.3394C94.4437 31.0638 94.504 30.7623 94.4929 30.4592C94.4995 30.1834 94.4495 29.9093 94.3461 29.6536C94.2427 29.3979 94.088 29.1661 93.8916 28.9724C93.3081 28.4642 92.6256 28.0824 91.8872 27.851C89.3483 26.9039 88.0789 25.5175 88.0789 23.6919C88.0646 23.1341 88.1774 22.5804 88.4087 22.0726C88.6399 21.5649 88.9836 21.1163 89.4138 20.761C90.4189 19.9586 91.6832 19.5521 92.9676 19.6185C94.1042 19.5789 95.2335 19.8153 96.2588 20.3075L95.678 22.2016C94.824 21.7479 93.8688 21.5184 92.9019 21.5346C92.2118 21.4928 91.5304 21.7069 90.9882 22.136C90.8026 22.3002 90.6547 22.5026 90.5544 22.7292C90.4542 22.9559 90.4041 23.2015 90.4075 23.4493C90.4021 23.7213 90.4594 23.9908 90.5749 24.237C90.6903 24.4833 90.8609 24.6997 91.0734 24.8694C91.7127 25.3525 92.4251 25.7305 93.1835 25.9889C94.226 26.356 95.1693 26.9596 95.9396 27.7523C96.5361 28.4519 96.8494 29.3494 96.818 30.2683V30.2683Z" fill="white"/>
<path d="M104.501 25.6221H101.939V30.6987C101.939 31.9902 102.391 32.6358 103.295 32.6354C103.642 32.643 103.989 32.6069 104.327 32.5277L104.392 34.2921C103.809 34.4823 103.197 34.5693 102.585 34.5491C102.186 34.5715 101.788 34.5082 101.416 34.3634C101.044 34.2186 100.708 33.9957 100.43 33.7098C99.9144 33.1496 99.6562 32.2097 99.6552 30.8901V25.6186H98.1314V23.8748H99.6572V21.9601L101.939 21.2711V23.8768H104.5V25.6221H104.501Z" fill="white"/>
<path d="M116.057 29.0191C116.113 30.4651 115.621 31.8791 114.679 32.9777C114.195 33.5064 113.601 33.9228 112.939 34.1979C112.277 34.473 111.563 34.6001 110.847 34.5702C110.161 34.6005 109.477 34.4795 108.843 34.2156C108.209 33.9517 107.641 33.5515 107.18 33.0434C106.252 31.9795 105.763 30.6026 105.813 29.1919C105.753 27.7334 106.257 26.3078 107.22 25.2107C107.702 24.6922 108.292 24.2849 108.948 24.0172C109.603 23.7496 110.309 23.628 111.017 23.6608C111.708 23.6325 112.396 23.7544 113.035 24.0182C113.674 24.282 114.249 24.6814 114.718 25.1887C115.636 26.2481 116.115 27.6183 116.057 29.0191V29.0191ZM113.646 29.0942C113.671 28.2257 113.455 27.3672 113.022 26.6138C112.827 26.2304 112.528 25.9097 112.159 25.6882C111.79 25.4667 111.367 25.3533 110.936 25.3611C110.499 25.349 110.068 25.4601 109.691 25.6816C109.314 25.9032 109.008 26.2262 108.806 26.6138C108.369 27.382 108.153 28.2558 108.182 29.1388C108.157 30.0074 108.372 30.866 108.806 31.6193C109.01 31.9994 109.313 32.3168 109.684 32.5373C110.055 32.7578 110.479 32.8731 110.91 32.8709C111.342 32.8687 111.764 32.749 112.133 32.5247C112.501 32.3004 112.802 31.9799 113.002 31.5977C113.445 30.8397 113.668 29.973 113.646 29.0952V29.0942Z" fill="white"/>
<path d="M123.609 25.9208C123.367 25.8772 123.122 25.8557 122.876 25.8567C122.508 25.8397 122.142 25.9157 121.811 26.0776C121.48 26.2395 121.195 26.4822 120.982 26.7832C120.576 27.3934 120.373 28.1162 120.402 28.8487V34.3357H118.079L118.101 27.17C118.101 25.9647 118.071 24.8672 118.013 23.8773H120.037L120.122 25.8782H120.187C120.406 25.2257 120.81 24.6504 121.349 24.2216C121.834 23.8587 122.423 23.6622 123.028 23.6614C123.223 23.6604 123.417 23.6746 123.609 23.704V25.9198V25.9208Z" fill="white"/>
<path d="M134.001 28.6116C134.007 28.9643 133.979 29.3168 133.916 29.6639H126.948C126.932 30.1087 127.015 30.5514 127.19 30.9606C127.365 31.3699 127.627 31.7357 127.959 32.0321C128.608 32.5399 129.416 32.7992 130.239 32.7632C131.202 32.776 132.159 32.6082 133.06 32.2686L133.424 33.8817C132.311 34.3365 131.117 34.5566 129.916 34.5281C129.215 34.5667 128.513 34.4595 127.855 34.2132C127.197 33.9668 126.598 33.5868 126.095 33.097C125.62 32.5808 125.253 31.9754 125.015 31.3159C124.777 30.6565 124.672 29.9563 124.707 29.256C124.656 27.8315 125.114 26.4354 126 25.3184C126.435 24.7714 126.993 24.3345 127.629 24.0431C128.264 23.7517 128.959 23.6141 129.658 23.6413C130.324 23.6042 130.989 23.739 131.589 24.0327C132.188 24.3264 132.702 24.7691 133.081 25.3184C133.72 26.295 134.042 27.4453 134.001 28.6116ZM131.785 28.0103C131.816 27.3832 131.659 26.7613 131.334 26.2239C131.143 25.9093 130.869 25.6528 130.542 25.4821C130.215 25.3114 129.848 25.2328 129.48 25.2548C129.118 25.2485 128.76 25.3316 128.437 25.4968C128.114 25.662 127.838 25.9041 127.631 26.2019C127.237 26.7265 127 27.352 126.948 28.0058H131.788L131.785 28.0103Z" fill="white"/>
<path d="M54.3239 10.909C54.3628 11.4475 54.2793 11.9879 54.0797 12.4895C53.8801 12.9912 53.5696 13.4412 53.1714 13.8058C52.2987 14.4557 51.2235 14.7741 50.1377 14.7043C49.5796 14.7091 49.0218 14.6806 48.4671 14.6191V7.60976C49.1178 7.50718 49.7756 7.45691 50.4344 7.45943C51.4422 7.38588 52.4432 7.67465 53.257 8.27372C53.6206 8.60525 53.9052 9.01411 54.0898 9.47018C54.2744 9.92624 54.3544 10.4179 54.3239 10.909V10.909ZM53.1212 10.9406C53.1444 10.5936 53.0979 10.2456 52.9845 9.91695C52.871 9.58829 52.693 9.28565 52.4608 9.02687C52.2003 8.79135 51.895 8.6109 51.563 8.49637C51.231 8.38185 50.8794 8.3356 50.5291 8.36041C50.2207 8.35573 49.9127 8.38056 49.6091 8.43457V13.7632C49.8653 13.7902 50.1231 13.8008 50.3807 13.7948C50.75 13.8184 51.1203 13.7658 51.4684 13.6404C51.8166 13.515 52.1352 13.3194 52.4047 13.0657C52.658 12.7761 52.8516 12.4392 52.9743 12.0745C53.097 11.7098 53.1465 11.3244 53.1197 10.9406H53.1212Z" fill="white"/>
<path d="M60.7099 12.0289C60.7377 12.7395 60.4959 13.4344 60.0329 13.9742C59.7952 14.2339 59.5036 14.4385 59.1784 14.5737C58.8533 14.7089 58.5026 14.7714 58.1508 14.7569C57.8133 14.772 57.4767 14.7125 57.1648 14.5826C56.853 14.4526 56.5737 14.2555 56.3468 14.0052C55.8916 13.4823 55.6519 12.806 55.6764 12.1131C55.6475 11.397 55.8953 10.6972 56.3684 10.1588C56.606 9.90393 56.8963 9.70386 57.2191 9.57251C57.5419 9.44115 57.8894 9.38164 58.2375 9.39814C58.577 9.38445 58.9154 9.44456 59.2295 9.57433C59.5435 9.70409 59.8256 9.90042 60.0565 10.1498C60.5044 10.6708 60.7379 11.3424 60.7099 12.0289ZM59.5253 12.066C59.5373 11.639 59.4313 11.217 59.2191 10.8463C59.123 10.6581 58.976 10.5007 58.7949 10.392C58.6137 10.2833 58.4056 10.2277 58.1944 10.2315C57.9797 10.2255 57.7677 10.28 57.5825 10.3887C57.3974 10.4974 57.2465 10.656 57.1471 10.8463C56.9327 11.2236 56.8268 11.6528 56.8409 12.0865C56.8289 12.5135 56.9349 12.9355 57.1471 13.3062C57.2463 13.4943 57.3956 13.6513 57.5785 13.7598C57.7614 13.8683 57.9707 13.9241 58.1834 13.921C58.3955 13.9224 58.6038 13.8646 58.7849 13.754C58.9659 13.6435 59.1125 13.4845 59.2081 13.2952C59.4266 12.9231 59.5365 12.4973 59.5253 12.066Z" fill="white"/>
<path d="M69.2716 9.50287L67.6641 14.6406H66.6178L65.9518 12.4097C65.7859 11.8638 65.6481 11.3097 65.5389 10.7496H65.5184C65.4199 11.312 65.2819 11.8667 65.1055 12.4097L64.3979 14.6406H63.3396L61.8278 9.50287H63.0014L63.5821 11.9452C63.7228 12.5228 63.8397 13.0725 63.9329 13.5943H63.9535C64.0383 13.1651 64.1796 12.619 64.3774 11.9562L65.1065 9.50387H66.037L66.7355 11.9036C66.9046 12.4889 67.0419 13.0528 67.1475 13.5953H67.179C67.2657 13.0256 67.3828 12.4609 67.5298 11.9036L68.1532 9.50387H69.2716V9.50287Z" fill="white"/>
<path d="M75.1931 14.6401H74.0511V11.6976C74.0511 10.791 73.706 10.3376 73.0158 10.3376C72.8589 10.3331 72.7031 10.3643 72.5601 10.4291C72.4172 10.4939 72.2909 10.5905 72.191 10.7115C71.9822 10.9559 71.8693 11.2679 71.8733 11.5894V14.6366H70.7313V10.9705C70.7313 10.5192 70.7174 10.0291 70.6897 9.50031H71.6919L71.7455 10.3021H71.7771C71.9171 10.0479 72.1218 9.83508 72.3704 9.68522C72.6812 9.49296 73.0402 9.39287 73.4056 9.39659C73.626 9.38982 73.8454 9.42755 74.0509 9.50754C74.2563 9.58752 74.4435 9.70812 74.6013 9.86211C74.8115 10.0903 74.9725 10.3593 75.0744 10.6524C75.1762 10.9455 75.2166 11.2564 75.1931 11.5658V14.6401Z" fill="white"/>
<path d="M78.343 14.6401H77.202V7.1452H78.343V14.6401Z" fill="white"/>
<path d="M85.0677 12.0289C85.0956 12.7396 84.8537 13.4344 84.3907 13.9742C84.1529 14.2339 83.8613 14.4385 83.5362 14.5737C83.2111 14.7089 82.8604 14.7714 82.5086 14.7569C82.1711 14.7723 81.8344 14.7128 81.5225 14.5829C81.2107 14.453 80.9314 14.2557 80.7046 14.0053C80.2494 13.4823 80.0098 12.806 80.0342 12.1131C80.0053 11.397 80.2531 10.6972 80.7262 10.1589C80.9633 9.90455 81.2529 9.70482 81.5748 9.57348C81.8968 9.44214 82.2434 9.38233 82.5908 9.39819C82.9304 9.38452 83.269 9.44464 83.5832 9.5744C83.8974 9.70416 84.1797 9.90048 84.4108 10.1498C84.86 10.6703 85.0948 11.342 85.0677 12.0289V12.0289ZM83.8821 12.066C83.8941 11.6391 83.7882 11.217 83.5759 10.8464C83.4801 10.6583 83.3334 10.501 83.1525 10.3922C82.9715 10.2835 82.7637 10.2278 82.5527 10.2315C82.338 10.2253 82.1259 10.2797 81.9407 10.3884C81.7555 10.4972 81.6046 10.6559 81.5054 10.8464C81.291 11.2237 81.1851 11.6529 81.1992 12.0866C81.1872 12.5135 81.2932 12.9356 81.5054 13.3062C81.6046 13.4944 81.7539 13.6514 81.9368 13.7599C82.1197 13.8684 82.329 13.9242 82.5417 13.9211C82.7536 13.9224 82.9617 13.8645 83.1424 13.7539C83.3232 13.6433 83.4695 13.4845 83.5649 13.2952C83.7839 12.9234 83.8938 12.4974 83.8821 12.066Z" fill="white"/>
<path d="M90.5953 14.6406H89.5701L89.4849 14.0488H89.4543C89.2815 14.2816 89.0538 14.468 88.7915 14.5916C88.5293 14.7151 88.2405 14.7719 87.951 14.7569C87.7338 14.7659 87.5172 14.7291 87.3152 14.6489C87.1132 14.5687 86.9303 14.4469 86.7784 14.2913C86.646 14.152 86.5424 13.9878 86.4736 13.8082C86.4048 13.6286 86.3722 13.4373 86.3776 13.245C86.3666 12.9565 86.4342 12.6704 86.573 12.4173C86.7118 12.1641 86.9167 11.9533 87.1658 11.8074C87.8438 11.4397 88.612 11.2712 89.3816 11.3213V11.2256C89.3816 10.5488 89.026 10.2106 88.3148 10.2109C87.8405 10.2012 87.3741 10.3329 86.9749 10.5892L86.7429 9.83759C87.2771 9.52747 87.8878 9.3738 88.5052 9.39412C89.8478 9.39412 90.52 10.1025 90.5216 11.5193V13.4154C90.5149 13.8251 90.5395 14.2347 90.5953 14.6406V14.6406ZM89.4097 12.8752V12.0825C88.1499 12.0608 87.5201 12.4059 87.5201 13.1178C87.5116 13.2278 87.5267 13.3384 87.5645 13.4421C87.6022 13.5458 87.6618 13.6403 87.739 13.7191C87.8925 13.8551 88.0924 13.9268 88.2973 13.9195C88.5498 13.919 88.7953 13.8356 88.9958 13.682C89.1253 13.591 89.2308 13.4698 89.303 13.3288C89.3752 13.1879 89.412 13.0316 89.4102 12.8732L89.4097 12.8752Z" fill="white"/>
<path d="M97.086 14.6401H96.0723L96.0187 13.8153H95.9871C95.8362 14.118 95.5988 14.3691 95.305 14.5367C95.0113 14.7044 94.6743 14.781 94.337 14.7569C94.0411 14.7615 93.7481 14.6982 93.4805 14.5718C93.2129 14.4454 92.9779 14.2593 92.7936 14.0278C92.3682 13.4914 92.1507 12.8195 92.1813 12.1356C92.1472 11.4035 92.3843 10.6845 92.8472 10.1162C93.0425 9.88715 93.2858 9.70395 93.5599 9.57966C93.8341 9.45537 94.1322 9.39305 94.4332 9.39713C94.7152 9.36894 94.9996 9.41915 95.2549 9.54222C95.5103 9.66529 95.7267 9.85646 95.8803 10.0947H95.9019V7.1452H97.0454V13.2586C97.0454 13.7573 97.0589 14.2179 97.086 14.6401ZM95.9019 12.4739V11.617C95.9043 11.4963 95.8937 11.3757 95.8703 11.2572C95.8093 10.9887 95.6647 10.7464 95.4574 10.5652C95.2467 10.3795 94.974 10.2796 94.6932 10.2851C94.4966 10.2786 94.3015 10.3218 94.1259 10.4106C93.9503 10.4994 93.7999 10.631 93.6886 10.7932C93.4316 11.1768 93.3033 11.6322 93.3222 12.0935C93.3019 12.5331 93.425 12.9673 93.673 13.3307C93.7842 13.4915 93.9337 13.622 94.1079 13.7105C94.2822 13.7989 94.4758 13.8425 94.6712 13.8374C94.8442 13.8426 95.016 13.8071 95.1727 13.7336C95.3294 13.6601 95.4666 13.5508 95.5732 13.4144C95.7937 13.1514 95.9106 12.817 95.9019 12.4739Z" fill="white"/>
<path d="M106.854 12.0288C106.882 12.7395 106.64 13.4343 106.177 13.9741C105.94 14.2339 105.648 14.4386 105.323 14.5738C104.998 14.709 104.647 14.7715 104.295 14.7568C103.958 14.7717 103.621 14.7121 103.309 14.5822C102.998 14.4523 102.718 14.2553 102.491 14.0052C102.036 13.4822 101.796 12.8059 101.821 12.113C101.792 11.3969 102.04 10.6971 102.513 10.1588C102.75 9.9042 103.04 9.70432 103.363 9.57298C103.685 9.44163 104.032 9.38196 104.38 9.39809C104.719 9.38438 105.058 9.44448 105.372 9.57425C105.685 9.70403 105.967 9.90037 106.198 10.1497C106.647 10.6703 106.882 11.3419 106.854 12.0288ZM105.671 12.0659C105.683 11.639 105.577 11.2169 105.365 10.8463C105.268 10.658 105.121 10.5006 104.94 10.3919C104.758 10.2832 104.55 10.2276 104.339 10.2314C104.124 10.2257 103.912 10.2803 103.727 10.389C103.542 10.4977 103.391 10.6561 103.292 10.8463C103.077 11.2236 102.971 11.6528 102.985 12.0865C102.973 12.5134 103.079 12.9354 103.292 13.3061C103.392 13.4929 103.541 13.6488 103.723 13.7571C103.906 13.8654 104.114 13.922 104.326 13.9209C104.538 13.9197 104.746 13.8609 104.927 13.7506C105.108 13.6404 105.255 13.4829 105.354 13.2951C105.572 12.9229 105.681 12.4972 105.671 12.0659V12.0659Z" fill="white"/>
<path d="M112.996 14.6401H111.855V11.6977C111.855 10.791 111.509 10.3377 110.819 10.3377C110.662 10.333 110.506 10.3642 110.363 10.429C110.221 10.4938 110.094 10.5905 109.995 10.7115C109.786 10.9557 109.673 11.2679 109.677 11.5894V14.6366H108.534V10.9706C108.534 10.5193 108.52 10.0292 108.493 9.50036H109.496L109.549 10.3021H109.581C109.721 10.0487 109.924 9.83616 110.171 9.68526C110.482 9.493 110.842 9.39292 111.207 9.39663C111.428 9.38994 111.647 9.42771 111.852 9.5077C112.057 9.58768 112.244 9.70824 112.402 9.86215C112.613 10.0901 112.774 10.3591 112.876 10.6523C112.978 10.9454 113.018 11.2565 112.994 11.5659L112.996 14.6401Z" fill="white"/>
<path d="M120.683 10.3582H119.425V12.8542C119.425 13.4886 119.649 13.8062 120.091 13.8062C120.263 13.8101 120.434 13.7921 120.6 13.7526L120.63 14.619C120.344 14.7131 120.044 14.7562 119.743 14.7463C119.548 14.7573 119.352 14.7262 119.17 14.6552C118.988 14.5841 118.823 14.4747 118.687 14.3344C118.394 13.9353 118.258 13.4422 118.305 12.9494V10.3587H117.554V9.50333H118.305V8.56076L119.425 8.22302V9.50333H120.683V10.3602V10.3582Z" fill="white"/>
<path d="M126.729 14.6401H125.586V11.7192C125.586 10.7982 125.241 10.3375 124.552 10.3372C124.306 10.3286 124.065 10.4031 123.867 10.5486C123.669 10.6941 123.527 10.9021 123.462 11.1389C123.424 11.2726 123.406 11.411 123.408 11.5498V14.6396H122.268V7.1452H123.409V10.2415H123.431C123.589 9.97525 123.815 9.75637 124.087 9.60774C124.358 9.45911 124.665 9.3862 124.974 9.39663C125.191 9.38989 125.408 9.42772 125.61 9.50778C125.812 9.58784 125.995 9.70844 126.149 9.86215C126.356 10.0961 126.514 10.3691 126.614 10.6651C126.714 10.961 126.753 11.274 126.73 11.5854V14.6421L126.729 14.6401Z" fill="white"/>
<path d="M132.967 11.8284C132.969 12.0019 132.955 12.1752 132.924 12.346H129.499C129.492 12.5643 129.533 12.7815 129.618 12.9824C129.704 13.1833 129.833 13.3631 129.995 13.5091C130.314 13.7585 130.712 13.8861 131.116 13.8689C131.589 13.8751 132.059 13.7927 132.502 13.6258L132.68 14.4191C132.134 14.642 131.547 14.75 130.956 14.7363C130.612 14.7555 130.268 14.7031 129.945 14.5824C129.622 14.4616 129.328 14.2751 129.081 14.0347C128.847 13.7813 128.667 13.484 128.55 13.16C128.433 12.8361 128.382 12.492 128.4 12.1481C128.374 11.4482 128.599 10.7621 129.034 10.2134C129.247 9.94457 129.521 9.72991 129.833 9.58678C130.145 9.44364 130.487 9.37608 130.83 9.38955C131.157 9.37134 131.483 9.43755 131.777 9.58181C132.072 9.72608 132.324 9.94356 132.51 10.2134C132.827 10.6907 132.987 11.2555 132.967 11.8284V11.8284ZM131.877 11.5332C131.893 11.2252 131.816 10.9195 131.656 10.6558C131.561 10.5016 131.427 10.3758 131.267 10.292C131.107 10.2081 130.927 10.1694 130.747 10.1798C130.569 10.1768 130.392 10.2176 130.234 10.2988C130.075 10.38 129.939 10.499 129.838 10.6453C129.644 10.904 129.527 11.2118 129.499 11.5337H131.877V11.5332Z" fill="white"/>
</svg>
