<svg width="24" height="28" viewBox="0 0 24 28" fill="none" xmlns="http://www.w3.org/2000/svg">
<mask id="path-1-inside-1_2188_115" fill="white">
<path d="M12 0C11.0132 0 10.1999 0.813308 10.1999 1.80006C10.1999 2.30633 10.4156 2.76337 10.7554 3.09385L0.0535089 26.7525C-0.0308689 26.9376 -0.0144622 27.1532 0.0956972 27.3243C0.205857 27.4954 0.395707 27.5986 0.599621 27.6009H23.4004C23.6043 27.5986 23.7941 27.4954 23.9043 27.3243C24.0145 27.1532 24.0309 26.9376 23.9465 26.7525L13.2446 3.09385C13.5844 2.76337 13.8001 2.30633 13.8001 1.80006C13.8001 0.813308 12.9868 0 12 0ZM12 1.20004C12.3375 1.20004 12.6 1.46255 12.6 1.80006C12.6 2.02976 12.4735 2.21726 12.2906 2.31805C12.2578 2.32977 12.225 2.34383 12.1969 2.36258C12.1336 2.38367 12.0703 2.40008 12 2.40008C11.9297 2.40008 11.8664 2.38367 11.8055 2.36258C11.775 2.34617 11.7445 2.32977 11.7094 2.32039C11.5265 2.21726 11.4 2.02976 11.4 1.80006C11.4 1.46255 11.6625 1.20004 12 1.20004ZM11.85 3.58606C11.8992 3.5884 11.9484 3.60012 12 3.60012C12.0516 3.60012 12.1008 3.5884 12.15 3.58606L13.0243 5.51503L12.9117 6.96117L11.0343 8.04871L13.0407 8.87842L13.493 10.9972L14.8056 9.45735L19.4182 19.6553L16.9642 20.2179L14.5477 18.0006L14.2571 21.2702L11.4 22.8851L14.4188 24.1696L14.8712 26.4009H1.53012L6.29747 15.8607L7.385 16.3224L7.96862 19.2006L9.89993 16.9857L12.8157 17.3185L11.3062 14.8013L12.525 12.1293L9.6632 12.7856L8.26863 11.5059L11.85 3.58606ZM8.47957 13.3293L8.85224 13.6692L9.31632 14.0981L9.9304 13.9575L10.4249 13.8426L10.214 14.3044L9.95384 14.8786L10.2773 15.4177L10.5375 15.8537L10.0335 15.7951L9.40773 15.7224L8.99287 16.1982L8.66239 16.5802L8.55926 16.0857L8.43504 15.4669L7.85611 15.2185L7.38735 15.0192L7.82799 14.7731L8.37879 14.4614L8.43504 13.8333L8.47957 13.3293ZM16.0033 13.8005L15.1243 14.4989L14.0532 14.1708L14.4446 15.2232L13.8001 16.1419L14.9228 16.0951L15.5978 16.9904L15.8978 15.9099L16.9595 15.5443L16.022 14.9232L16.0033 13.8005ZM19.751 20.389L22.4699 26.4009H15.9283L17.2291 24.9102L20.487 25.2852L18.7994 22.4703L19.751 20.389ZM6.46153 20.4452L6.30919 22.1726L4.79976 23.0258L6.39356 23.7031L6.74045 25.4048L7.87721 24.0946L9.59992 24.2914L8.70927 22.8078L9.42882 21.228L7.73892 21.6171L6.46153 20.4452ZM15.5275 20.5296L16.1533 21.1038L16.6197 21.5281L17.2338 21.3874L18.0611 21.1976L17.7096 21.971L17.4471 22.5453L17.7728 23.0867L18.2088 23.8156L17.3627 23.7195L16.7369 23.6469L16.322 24.1227L15.7642 24.7625L15.5954 23.9328L15.4689 23.3141L14.8899 23.0656L14.1094 22.7328L14.8478 22.3132L15.3962 22.0039L15.4525 21.3757L15.5275 20.5296Z"/>
</mask>
<path d="M12 0C11.0132 0 10.1999 0.813308 10.1999 1.80006C10.1999 2.30633 10.4156 2.76337 10.7554 3.09385L0.0535089 26.7525C-0.0308689 26.9376 -0.0144622 27.1532 0.0956972 27.3243C0.205857 27.4954 0.395707 27.5986 0.599621 27.6009H23.4004C23.6043 27.5986 23.7941 27.4954 23.9043 27.3243C24.0145 27.1532 24.0309 26.9376 23.9465 26.7525L13.2446 3.09385C13.5844 2.76337 13.8001 2.30633 13.8001 1.80006C13.8001 0.813308 12.9868 0 12 0ZM12 1.20004C12.3375 1.20004 12.6 1.46255 12.6 1.80006C12.6 2.02976 12.4735 2.21726 12.2906 2.31805C12.2578 2.32977 12.225 2.34383 12.1969 2.36258C12.1336 2.38367 12.0703 2.40008 12 2.40008C11.9297 2.40008 11.8664 2.38367 11.8055 2.36258C11.775 2.34617 11.7445 2.32977 11.7094 2.32039C11.5265 2.21726 11.4 2.02976 11.4 1.80006C11.4 1.46255 11.6625 1.20004 12 1.20004ZM11.85 3.58606C11.8992 3.5884 11.9484 3.60012 12 3.60012C12.0516 3.60012 12.1008 3.5884 12.15 3.58606L13.0243 5.51503L12.9117 6.96117L11.0343 8.04871L13.0407 8.87842L13.493 10.9972L14.8056 9.45735L19.4182 19.6553L16.9642 20.2179L14.5477 18.0006L14.2571 21.2702L11.4 22.8851L14.4188 24.1696L14.8712 26.4009H1.53012L6.29747 15.8607L7.385 16.3224L7.96862 19.2006L9.89993 16.9857L12.8157 17.3185L11.3062 14.8013L12.525 12.1293L9.6632 12.7856L8.26863 11.5059L11.85 3.58606ZM8.47957 13.3293L8.85224 13.6692L9.31632 14.0981L9.9304 13.9575L10.4249 13.8426L10.214 14.3044L9.95384 14.8786L10.2773 15.4177L10.5375 15.8537L10.0335 15.7951L9.40773 15.7224L8.99287 16.1982L8.66239 16.5802L8.55926 16.0857L8.43504 15.4669L7.85611 15.2185L7.38735 15.0192L7.82799 14.7731L8.37879 14.4614L8.43504 13.8333L8.47957 13.3293ZM16.0033 13.8005L15.1243 14.4989L14.0532 14.1708L14.4446 15.2232L13.8001 16.1419L14.9228 16.0951L15.5978 16.9904L15.8978 15.9099L16.9595 15.5443L16.022 14.9232L16.0033 13.8005ZM19.751 20.389L22.4699 26.4009H15.9283L17.2291 24.9102L20.487 25.2852L18.7994 22.4703L19.751 20.389ZM6.46153 20.4452L6.30919 22.1726L4.79976 23.0258L6.39356 23.7031L6.74045 25.4048L7.87721 24.0946L9.59992 24.2914L8.70927 22.8078L9.42882 21.228L7.73892 21.6171L6.46153 20.4452ZM15.5275 20.5296L16.1533 21.1038L16.6197 21.5281L17.2338 21.3874L18.0611 21.1976L17.7096 21.971L17.4471 22.5453L17.7728 23.0867L18.2088 23.8156L17.3627 23.7195L16.7369 23.6469L16.322 24.1227L15.7642 24.7625L15.5954 23.9328L15.4689 23.3141L14.8899 23.0656L14.1094 22.7328L14.8478 22.3132L15.3962 22.0039L15.4525 21.3757L15.5275 20.5296Z" fill="black" stroke="black" stroke-width="2" mask="url(#path-1-inside-1_2188_115)"/>
</svg>
