<svg width="147" height="44" viewBox="0 0 147 44" fill="none" xmlns="http://www.w3.org/2000/svg">
<path d="M138.303 0H8.01755C3.58958 0 0 3.58958 0 8.01755V35.5779C0 40.0059 3.58958 43.5955 8.01755 43.5955H138.303C142.731 43.5955 146.32 40.0059 146.32 35.5779V8.01755C146.32 3.58958 142.731 0 138.303 0Z" fill="black"/>
<path d="M140.908 0.890933C142.114 0.892259 143.27 1.3719 144.123 2.22461C144.975 3.07732 145.455 4.23347 145.456 5.43939V37.928C145.455 39.1339 144.975 40.2901 144.123 41.1428C143.27 41.9955 142.114 42.4752 140.908 42.4765H5.53909C4.33317 42.4752 3.17703 41.9955 2.32431 41.1428C1.4716 40.2901 0.99196 39.1339 0.990634 37.928V5.43939C0.99196 4.23347 1.4716 3.07732 2.32431 2.22461C3.17703 1.3719 4.33317 0.892259 5.53909 0.890933H140.908V0.890933ZM140.908 0.0245361H5.53909C4.10428 0.0287663 2.72945 0.600617 1.71488 1.61518C0.700318 2.62975 0.128467 4.00458 0.124237 5.43939V37.928C0.128599 39.3627 0.700508 40.7374 1.71506 41.7519C2.72961 42.7664 4.10437 43.3381 5.53909 43.3424H140.908C142.343 43.3381 143.718 42.7663 144.732 41.7517C145.747 40.7372 146.319 39.3623 146.323 37.9275V5.43939C146.319 4.00458 145.747 2.62975 144.732 1.61518C143.718 0.600617 142.343 0.0287663 140.908 0.0245361V0.0245361Z" fill="#A6A6A6"/>
<path d="M51.4757 11.1173C51.4954 11.5147 51.434 11.912 51.2953 12.2849C51.1566 12.6578 50.9435 12.9986 50.6689 13.2866C50.3612 13.6059 49.9895 13.8566 49.5783 14.0223C49.167 14.188 48.7253 14.265 48.2822 14.2482C47.8363 14.252 47.3941 14.1667 46.9817 13.9973C46.5692 13.8279 46.1947 13.5777 45.8803 13.2616C45.5658 12.9454 45.3177 12.5696 45.1506 12.1562C44.9834 11.7428 44.9005 11.3001 44.9068 10.8543C44.9005 10.4084 44.9834 9.96575 45.1506 9.55235C45.3177 9.13896 45.5658 8.76313 45.8803 8.44696C46.1947 8.13079 46.5692 7.88064 46.9817 7.71121C47.3941 7.54178 47.8363 7.45648 48.2822 7.46033C48.7409 7.45894 49.195 7.55136 49.6166 7.73193C50.0078 7.89052 50.3559 8.13951 50.6323 8.45852L50.0611 9.03077C49.8431 8.77487 49.5694 8.57237 49.2609 8.43885C48.9524 8.30532 48.6174 8.24434 48.2817 8.26058C47.9438 8.25892 47.609 8.32543 47.2974 8.45614C46.9858 8.58686 46.7038 8.77908 46.4682 9.02132C46.2326 9.26355 46.0483 9.55082 45.9263 9.86593C45.8043 10.181 45.7471 10.5175 45.7582 10.8553C45.7504 11.3612 45.8929 11.858 46.1677 12.2828C46.4425 12.7076 46.8372 13.0413 47.3019 13.2416C47.7665 13.4419 48.2801 13.4997 48.7776 13.4078C49.2752 13.3159 49.7342 13.0784 50.0967 12.7254C50.4307 12.3657 50.6245 11.898 50.6429 11.4075H48.2817V10.6278H51.4311C51.4604 10.7893 51.4754 10.9531 51.4757 11.1173V11.1173Z" fill="white" stroke="white" stroke-width="0.100219" stroke-miterlimit="10"/>
<path d="M56.4701 8.40341H53.5081V10.4644H56.1764V11.2441H53.5081V13.3051H56.4701V14.1034H52.6743V7.60516H56.4701V8.40341Z" fill="white" stroke="white" stroke-width="0.100219" stroke-miterlimit="10"/>
<path d="M59.9883 14.1029H59.1525V8.40341H57.3385V7.60516H61.8033V8.40341H59.9883V14.1029Z" fill="white" stroke="white" stroke-width="0.100219" stroke-miterlimit="10"/>
<path d="M65.0339 14.1029V7.60516H65.8667V14.1029H65.0339Z" fill="white" stroke="white" stroke-width="0.100219" stroke-miterlimit="10"/>
<path d="M69.5713 14.1029H68.7349V8.40341H66.9214V7.60516H71.3862V8.40341H69.5713V14.1029Z" fill="white" stroke="white" stroke-width="0.100219" stroke-miterlimit="10"/>
<path d="M79.8388 13.2636C79.2063 13.894 78.3498 14.2481 77.4568 14.2481C76.5638 14.2481 75.7072 13.894 75.0748 13.2636C74.7619 12.9466 74.5159 12.5699 74.3515 12.1559C74.1871 11.7419 74.1076 11.2991 74.1177 10.8538C74.1076 10.4085 74.1871 9.96569 74.3515 9.55172C74.5159 9.13774 74.7619 8.76105 75.0748 8.44404C75.3875 8.13143 75.7588 7.88354 76.1673 7.71456C76.5759 7.54558 77.0138 7.45881 77.456 7.45923C77.8981 7.45965 78.3358 7.54724 78.7441 7.717C79.1524 7.88676 79.5232 8.13535 79.8352 8.44855C80.1485 8.76462 80.395 9.1404 80.5602 9.55358C80.7254 9.96677 80.8058 10.4089 80.7969 10.8538C80.8066 11.2992 80.7268 11.7419 80.5622 12.1559C80.3977 12.5698 80.1516 12.9465 79.8388 13.2636V13.2636ZM75.6912 12.7189C76.1597 13.1862 76.7945 13.4487 77.4563 13.4487C78.1181 13.4487 78.7528 13.1862 79.2214 12.7189C79.4616 12.473 79.6494 12.1809 79.7735 11.8603C79.8976 11.5398 79.9554 11.1974 79.9435 10.8538C79.9554 10.5103 79.8976 10.1679 79.7735 9.84731C79.6494 9.52674 79.4616 9.23467 79.2214 8.98873C78.7528 8.52138 78.1181 8.25893 77.4563 8.25893C76.7945 8.25893 76.1597 8.52138 75.6912 8.98873C75.4514 9.23487 75.2638 9.52701 75.1399 9.84754C75.016 10.1681 74.9582 10.5104 74.9701 10.8538C74.9582 11.1973 75.016 11.5396 75.1399 11.8601C75.2638 12.1806 75.4514 12.4728 75.6912 12.7189V12.7189Z" fill="white" stroke="white" stroke-width="0.100219" stroke-miterlimit="10"/>
<path d="M81.968 14.1029V7.60516H82.9827L86.1396 12.6592H86.1752L86.1396 11.4065V7.60516H86.9744V14.1029H86.107L82.8028 8.80279H82.7672L82.8028 10.0555V14.1024L81.968 14.1029Z" fill="white" stroke="white" stroke-width="0.100219" stroke-miterlimit="10"/>
<path d="M73.9139 23.5807C73.0037 23.5841 72.115 23.8572 71.36 24.3654C70.6049 24.8735 70.0173 25.594 69.6714 26.4359C69.3255 27.2778 69.2368 28.2032 69.4165 29.0955C69.5962 29.9877 70.0362 30.8067 70.681 31.449C71.3258 32.0914 72.1464 32.5283 73.0393 32.7046C73.9323 32.8809 74.8574 32.7887 75.6979 32.4396C76.5385 32.0905 77.2567 31.5002 77.762 30.7432C78.2673 29.9862 78.537 29.0964 78.537 28.1863C78.546 27.5775 78.4324 26.9731 78.203 26.4091C77.9736 25.8451 77.6332 25.3331 77.2018 24.9034C76.7705 24.4737 76.2571 24.1351 75.6923 23.9079C75.1274 23.6807 74.5226 23.5694 73.9139 23.5807ZM73.9139 30.9774C73.5586 30.9692 73.2085 30.8899 72.8842 30.7444C72.56 30.5988 72.2681 30.3899 72.0259 30.1299C71.7836 29.8698 71.5957 29.564 71.4734 29.2303C71.3511 28.8966 71.2968 28.5418 71.3137 28.1868C71.2894 27.8305 71.3387 27.473 71.4584 27.1366C71.578 26.8002 71.7656 26.4919 72.0093 26.231C72.2531 25.97 72.5479 25.762 72.8755 25.6198C73.203 25.4775 73.5563 25.4041 73.9134 25.4041C74.2705 25.4041 74.6238 25.4775 74.9513 25.6198C75.2788 25.762 75.5736 25.97 75.8174 26.231C76.0612 26.4919 76.2487 26.8002 76.3684 27.1366C76.4881 27.473 76.5373 27.8305 76.5131 28.1868C76.5301 28.5417 76.4759 28.8965 76.3537 29.2302C76.2315 29.5639 76.0438 29.8698 75.8016 30.1298C75.5594 30.3899 75.2676 30.5988 74.9434 30.7444C74.6192 30.8899 74.2692 30.9692 73.9139 30.9774V30.9774ZM63.8268 23.5807C62.9168 23.5845 62.0283 23.8579 61.2735 24.3663C60.5187 24.8747 59.9314 25.5953 59.5858 26.4372C59.2402 27.279 59.1517 28.2044 59.3316 29.0965C59.5115 29.9886 59.9516 30.8074 60.5964 31.4496C61.2412 32.0917 62.0619 32.5285 62.9547 32.7047C63.8475 32.8809 64.7725 32.7886 65.613 32.4395C66.4534 32.0904 67.1716 31.5002 67.6768 30.7433C68.1821 29.9864 68.4518 29.0968 68.4519 28.1868C68.4609 27.5778 68.3473 26.9732 68.1178 26.4091C67.8883 25.8449 67.5476 25.3327 67.1161 24.903C66.6845 24.4732 66.1709 24.1347 65.6058 23.9075C65.0407 23.6803 64.4357 23.5692 63.8268 23.5807V23.5807ZM63.8268 30.9774C63.4715 30.9692 63.1214 30.8899 62.7972 30.7444C62.4729 30.5988 62.1811 30.3899 61.9388 30.1299C61.6965 29.8698 61.5087 29.564 61.3864 29.2303C61.264 28.8966 61.2097 28.5418 61.2266 28.1868C61.2024 27.8305 61.2516 27.473 61.3713 27.1366C61.4909 26.8002 61.6785 26.4919 61.9223 26.231C62.166 25.97 62.4608 25.762 62.7884 25.6198C63.1159 25.4775 63.4692 25.4041 63.8263 25.4041C64.1834 25.4041 64.5367 25.4775 64.8642 25.6198C65.1917 25.762 65.4866 25.97 65.7303 26.231C65.9741 26.4919 66.1617 26.8002 66.2813 27.1366C66.401 27.473 66.4502 27.8305 66.426 28.1868C66.4429 28.5417 66.3887 28.8965 66.2665 29.2301C66.1443 29.5638 65.9565 29.8696 65.7143 30.1297C65.4721 30.3897 65.1804 30.5987 64.8562 30.7442C64.5321 30.8898 64.1821 30.9691 63.8268 30.9774ZM51.8285 24.9943V26.9485H56.5038C56.4365 27.8647 56.0618 28.7313 55.4404 29.4079C54.9719 29.8857 54.4083 30.2599 53.7862 30.5064C53.1641 30.7529 52.4972 30.8662 51.8285 30.8391C50.4651 30.8159 49.1653 30.258 48.2093 29.2856C47.2533 28.3132 46.7175 27.0041 46.7175 25.6404C46.7175 24.2768 47.2533 22.9677 48.2093 21.9953C49.1653 21.0229 50.4651 20.465 51.8285 20.4418C53.1412 20.4247 54.4075 20.9264 55.3522 21.8379L56.7308 20.4593C56.0859 19.8209 55.3201 19.3177 54.4782 18.9791C53.6363 18.6405 52.7353 18.4734 51.828 18.4875C50.8799 18.4738 49.9385 18.6487 49.0586 19.002C48.1786 19.3553 47.3777 19.88 46.7024 20.5456C46.027 21.2113 45.4907 22.0045 45.1247 22.8792C44.7587 23.7539 44.5702 24.6927 44.5702 25.6409C44.5702 26.5892 44.7587 27.5279 45.1247 28.4027C45.4907 29.2774 46.027 30.0706 46.7024 30.7362C47.3777 31.4018 48.1786 31.9266 49.0586 32.2799C49.9385 32.6332 50.8799 32.8081 51.828 32.7943C52.7542 32.8331 53.678 32.6744 54.5381 32.3288C55.3982 31.9832 56.175 31.4587 56.817 30.79C57.9567 29.546 58.5643 27.9053 58.5097 26.219C58.5142 25.8096 58.479 25.4008 58.4044 24.9983L51.8285 24.9943ZM100.895 26.5116C100.512 25.4828 99.3416 23.5812 96.9518 23.5812C94.5791 23.5812 92.6083 25.4473 92.6083 28.1868C92.5951 28.7923 92.704 29.3943 92.9285 29.9568C93.1531 30.5193 93.4888 31.0307 93.9154 31.4606C94.3421 31.8905 94.851 32.23 95.4118 32.4588C95.9726 32.6876 96.5737 32.801 97.1793 32.7923C97.9381 32.7966 98.686 32.6122 99.3559 32.2559C100.026 31.8996 100.597 31.3824 101.017 30.7509L99.4468 29.7036C99.2116 30.0941 98.8789 30.4169 98.4814 30.6402C98.0839 30.8635 97.6352 30.9797 97.1793 30.9774C96.7101 30.9953 96.2462 30.872 95.8479 30.6232C95.4496 30.3745 95.1352 30.0119 94.9454 29.5823L101.104 27.0342L100.895 26.5116ZM94.6137 28.0475C94.5921 27.7124 94.6375 27.3764 94.7472 27.0591C94.8569 26.7418 95.0287 26.4496 95.2527 26.1994C95.4766 25.9493 95.7481 25.7463 96.0514 25.6022C96.3547 25.4582 96.6836 25.3761 97.019 25.3606C97.3684 25.3373 97.7169 25.4176 98.021 25.5913C98.3251 25.765 98.5712 26.0244 98.7287 26.3372L94.6137 28.0475ZM89.6072 32.5137H91.6302V18.9741H89.6072V32.5137ZM86.291 24.6094H86.2218C85.9141 24.2753 85.5386 24.0107 85.1205 23.8333C84.7023 23.6559 84.2511 23.5698 83.797 23.5807C82.6097 23.6317 81.4881 24.1393 80.666 24.9975C79.844 25.8557 79.3851 26.9981 79.3851 28.1865C79.3851 29.3749 79.844 30.5173 80.666 31.3755C81.4881 32.2337 82.6097 32.7413 83.797 32.7923C84.253 32.8045 84.7062 32.7171 85.125 32.5363C85.5438 32.3554 85.9181 32.0854 86.2218 31.7451H86.291V32.409C86.291 34.1709 85.3499 35.1149 83.8316 35.1149C83.3256 35.1027 82.8347 34.9402 82.4215 34.648C82.0082 34.3559 81.6913 33.9473 81.511 33.4743L79.7492 34.2074C80.0813 35.0161 80.6474 35.7072 81.3748 36.192C82.1022 36.6769 82.9579 36.9335 83.8321 36.9289C86.2048 36.9289 88.2117 35.5328 88.2117 32.1314V23.8633H86.291V24.6094ZM83.9714 30.9774C83.6197 30.9675 83.2735 30.8874 82.9531 30.7419C82.6327 30.5964 82.3446 30.3884 82.1057 30.13C81.8668 29.8716 81.682 29.5682 81.5619 29.2374C81.4419 28.9066 81.3892 28.5552 81.4068 28.2038C81.3873 27.8502 81.4385 27.4962 81.5575 27.1626C81.6764 26.829 81.8606 26.5224 82.0994 26.2609C82.3382 25.9993 82.6268 25.788 82.9482 25.6393C83.2696 25.4905 83.6175 25.4074 83.9714 25.3946C85.3499 25.3946 86.4308 26.5817 86.4308 28.2038C86.4313 29.8088 85.3504 30.9774 83.9719 30.9774H83.9714ZM110.375 18.9751H105.533V32.5132H107.553V27.384H110.375C112.615 27.384 114.816 25.762 114.816 23.1788C114.816 20.5956 112.615 18.9751 110.375 18.9751H110.375ZM110.425 25.4999H107.551V20.8592H110.425C110.732 20.8547 111.038 20.9114 111.323 21.026C111.609 21.1405 111.869 21.3107 112.088 21.5266C112.307 21.7425 112.481 21.9999 112.6 22.2836C112.718 22.5674 112.78 22.8719 112.78 23.1795C112.78 23.4872 112.718 23.7917 112.6 24.0755C112.481 24.3592 112.307 24.6165 112.088 24.8325C111.869 25.0484 111.609 25.2186 111.323 25.3331C111.038 25.4477 110.732 25.5044 110.425 25.4999ZM122.914 23.5561C121.45 23.5561 119.935 24.2005 119.306 25.6277L121.1 26.3793C121.278 26.0521 121.547 25.7838 121.875 25.6074C122.203 25.431 122.576 25.3541 122.947 25.3861C123.992 25.3861 125.054 26.013 125.071 27.1284V27.2672C124.422 26.9226 123.699 26.7433 122.964 26.7451C121.031 26.7451 119.062 27.8074 119.062 29.7928C119.062 31.6047 120.647 32.7718 122.423 32.7718C122.932 32.8018 123.44 32.6947 123.893 32.4618C124.347 32.2288 124.73 31.8785 125.002 31.4474H125.071V32.4927H127.021V27.2998C127.026 24.8966 125.232 23.5561 122.916 23.5561H122.914ZM122.671 30.9754C122.008 30.9754 121.085 30.6451 121.085 29.8264C121.085 28.7811 122.234 28.3807 123.227 28.3807C123.872 28.3631 124.51 28.5189 125.074 28.8317C125 29.4191 124.716 29.9599 124.274 30.354C123.832 30.7481 123.263 30.9688 122.671 30.9754ZM134.13 23.8518L131.816 29.7211H131.747L129.341 23.8513H127.165L130.771 32.0547L128.716 36.6182H130.824L136.381 23.8513L134.13 23.8518ZM115.931 32.5132H117.952V18.9751H115.931V32.5132Z" fill="white"/>
<path d="M11.4245 8.18739C11.0699 8.61221 10.8907 9.15631 10.9234 9.70872V33.6612C10.8905 34.2136 11.0698 34.7578 11.4245 35.1825L11.5047 35.2607L24.9216 21.8423V21.5261L11.5047 8.10822L11.4245 8.18739Z" fill="url(#paint0_linear_3029_224)"/>
<path d="M29.3944 26.3171L24.9226 21.8423V21.5261L29.3964 17.0523L29.4966 17.1109L34.7942 20.1215C36.307 20.9814 36.307 22.388 34.7942 23.2479L29.4961 26.2605L29.3944 26.3171Z" fill="url(#paint1_linear_3029_224)"/>
<path d="M29.4966 26.259L24.9216 21.684L11.4245 35.1815C11.9256 35.7102 12.7479 35.7748 13.676 35.2477L29.4966 26.259Z" fill="url(#paint2_linear_3029_224)"/>
<path d="M29.4966 17.1099L13.676 8.1217C12.7479 7.59454 11.9221 7.65918 11.4245 8.18784L24.9216 21.6844L29.4966 17.1099Z" fill="url(#paint3_linear_3029_224)"/>
<path opacity="0.2" d="M29.3964 26.1577L13.676 35.0887C12.7966 35.5898 12.0104 35.5552 11.5058 35.1007L11.4246 35.1809L11.5048 35.2601C12.0094 35.7151 12.7956 35.7487 13.675 35.2481L29.4967 26.2584L29.3964 26.1577Z" fill="black"/>
<path opacity="0.12" d="M11.4246 35.0226C11.0698 34.5978 10.8906 34.0537 10.9235 33.5012V33.6606C10.8906 34.2127 11.0698 34.7566 11.4246 35.1809L11.5058 35.1007L11.4246 35.0226Z" fill="black"/>
<path opacity="0.12" d="M34.7927 23.09L29.3954 26.1583L29.4956 26.2585L34.7927 23.2484C35.1048 23.1132 35.375 22.8967 35.575 22.6215C35.775 22.3464 35.8975 22.0226 35.9297 21.684C35.8628 21.9907 35.7252 22.2776 35.5278 22.5217C35.3304 22.7658 35.0787 22.9605 34.7927 23.09V23.09Z" fill="black"/>
<path opacity="0.25" d="M13.6767 8.27962L34.795 20.2789C35.0805 20.4087 35.3318 20.6033 35.5288 20.8473C35.7259 21.0914 35.8632 21.378 35.93 21.6845V21.6845C35.8981 21.346 35.776 21.0224 35.5764 20.7473C35.3767 20.4722 35.1069 20.2557 34.795 20.1205L13.6767 8.12178C12.1629 7.26189 10.9247 7.97646 10.9247 9.70925V9.8686C10.9247 8.13481 12.1624 7.41974 13.6767 8.27962Z" fill="white"/>
<defs>
<linearGradient id="paint0_linear_3029_224" x1="23.7314" y1="187.695" x2="2.24656" y2="181.984" gradientUnits="userSpaceOnUse">
<stop stop-color="#00A0FF"/>
<stop offset="0.007" stop-color="#00A1FF"/>
<stop offset="0.26" stop-color="#00BEFF"/>
<stop offset="0.512" stop-color="#00D2FF"/>
<stop offset="0.76" stop-color="#00DFFF"/>
<stop offset="1" stop-color="#00E3FF"/>
</linearGradient>
<linearGradient id="paint1_linear_3029_224" x1="36.7653" y1="175.462" x2="10.5595" y2="175.462" gradientUnits="userSpaceOnUse">
<stop stop-color="#FFE000"/>
<stop offset="0.409" stop-color="#FFBD00"/>
<stop offset="0.775" stop-color="#FFA500"/>
<stop offset="1" stop-color="#FF9C00"/>
</linearGradient>
<linearGradient id="paint2_linear_3029_224" x1="27.0027" y1="172.985" x2="9.76669" y2="143.942" gradientUnits="userSpaceOnUse">
<stop stop-color="#FF3A44"/>
<stop offset="1" stop-color="#C31162"/>
</linearGradient>
<linearGradient id="paint3_linear_3029_224" x1="8.02698" y1="196.929" x2="15.7292" y2="183.964" gradientUnits="userSpaceOnUse">
<stop stop-color="#32A071"/>
<stop offset="0.068" stop-color="#2DA771"/>
<stop offset="0.476" stop-color="#15CF74"/>
<stop offset="0.801" stop-color="#06E775"/>
<stop offset="1" stop-color="#00F076"/>
</linearGradient>
</defs>
</svg>
